<svg xmlns="http://www.w3.org/2000/svg" viewBox="0 0 17.76 10.24"><defs><style>.cls-1{fill:#006eb7;}</style></defs><title>bike-filter</title><g id="Layer_2" data-name="Layer 2"><g id="Layer_1-2" data-name="Layer 1"><g id="_15" data-name="15"><path class="cls-1" d="M3.65,10.24A3.65,3.65,0,1,1,7.3,6.59,3.66,3.66,0,0,1,3.65,10.24Zm0-6.73A3.08,3.08,0,1,0,6.73,6.59,3.09,3.09,0,0,0,3.65,3.5Z"/><path class="cls-1" d="M14.11,10.24a3.65,3.65,0,1,1,3.65-3.65A3.66,3.66,0,0,1,14.11,10.24Zm0-6.73a3.08,3.08,0,1,0,3.08,3.08A3.09,3.09,0,0,0,14.11,3.5Z"/><polygon class="cls-1" points="8.5 6.87 3.09 6.87 6.54 2.18 6.54 0.32 7.1 0.32 7.1 2.36 4.21 6.3 8.5 6.3 8.5 6.87"/><path class="cls-1" d="M8.84,7.49a.91.91,0,1,1,.91-.91A.91.91,0,0,1,8.84,7.49Zm0-1.24a.34.34,0,1,0,.34.34A.34.34,0,0,0,8.84,6.25Z"/><path class="cls-1" d="M14.39,1.6h-.57V1.07a.5.5,0,0,0-.5-.5H12.07v.94H11.5V0h1.82a1.07,1.07,0,0,1,1.07,1.07Z"/><rect class="cls-1" x="8.94" y="3.5" width="3.73" height="0.57" transform="translate(1.45 10.39) rotate(-54.53)"/><rect class="cls-1" x="7.01" y="-0.62" width="0.57" height="2.43" transform="translate(5.64 7.73) rotate(-81.61)"/><rect class="cls-1" x="7.58" y="3.09" width="0.57" height="3.11" transform="translate(-1.21 3.58) rotate(-23.87)"/><polygon class="cls-1" points="13.98 6.97 11.71 2.56 6.73 2.56 6.73 1.99 12.06 1.99 14.49 6.71 13.98 6.97"/></g></g></g></svg>