<svg xmlns="http://www.w3.org/2000/svg" viewBox="0 0 131.5 183.25"><defs><style>.cls-1{fill:#046fb7;}.cls-2{fill:#fff;}.cls-3{fill:#0067b0;}.cls-4,.cls-5,.cls-6,.cls-7{fill:none;stroke:#fff;stroke-miterlimit:10;}.cls-4,.cls-5{stroke-width:9.54px;}.cls-5{stroke-dasharray:1.91 1.91;}.cls-6,.cls-7{stroke-width:9.46px;}.cls-7{stroke-dasharray:1.88 1.88;}</style></defs><title>Asset 8</title><g id="Layer_2" data-name="Layer 2"><g id="Layer_2-2" data-name="Layer 2"><rect class="cls-1" width="131.5" height="183.25"/><rect class="cls-2" x="24.68" y="38.48" width="82.59" height="82.59" transform="translate(145.74 13.8) rotate(90)"/><path class="cls-2" d="M32.2,128.56v.52H30.6l0,8.57h5.5l0-8.57H34.47v-.52l8.65,0v.52H41.49l.05,18.29h1.63v.52l-8.65,0v-.52h1.63l0-9h-5.5l0,9h1.6v.52l-8.62,0v-.52h1.63l-.05-18.29H23.58v-.52Z"/><path class="cls-2" d="M56.93,128.93H54.14v-.44h5.44v.44H57.76l-4.15,9.24,0,9.15h1.69v.52l-8.76,0v-.52h1.69l0-8.62L43.5,129H42.2v-.44l8.84,0v.44h-1.8L53,137.59Z"/><path class="cls-2" d="M68.8,145.34V140H67v-.61l8,0V140H73.9l0,7.79h-.41a1.44,1.44,0,0,0-1.41-.69c-1.11,0-3.17,1-5.58,1-5.86,0-9.46-3.07-9.48-9.67s3.84-10.23,9.5-10.25c2.87,0,4.37.84,5.34.84.44,0,.55-.2.74-.55h.3l.24,6h-.5c-1.56-3.09-3.36-5.74-5.79-5.73-2.74,0-4.22,2.55-4.21,8.27v2.18c0,5.61,1.49,8.37,4,8.36C68.64,147.52,68.81,146.75,68.8,145.34Z"/><path class="cls-2" d="M86.76,145.29v-5.36H85v-.61l8,0v.61H91.86l0,7.79h-.41a1.44,1.44,0,0,0-1.41-.69c-1.11,0-3.17,1-5.58,1C78.62,148,75,145,75,138.36s3.84-10.23,9.5-10.25c2.87,0,4.37.84,5.34.84.44,0,.55-.2.74-.55h.3l.24,6h-.5c-1.56-3.09-3.36-5.74-5.79-5.73-2.74,0-4.22,2.55-4.21,8.27v2.18c0,5.61,1.49,8.37,4,8.36C86.6,147.47,86.77,146.7,86.76,145.29Z"/><path class="cls-2" d="M107.11,128.35l.29,5.47h-.5c-1.53-3.62-2.83-4.86-6.18-4.85h-1l0,8.54h.94c1.8,0,3-1.53,3.42-3.63h.41l0,8.18h-.47c-.67-2.76-1.72-3.84-3.66-3.83h-.66l0,8.87h1a7,7,0,0,0,6.75-5.43h.55l-.2,6-15.17,0v-.61h1.63l0-18.13H92.74v-.61Z"/><path class="cls-3" d="M54.25,116.12h-4.1v-.28h1l0-9.6h-1V106H54.6c3.58,0,5.57,1.27,5.58,4.88C60.19,114.94,57.71,116.11,54.25,116.12Zm.23-.28c2,0,2.72-1.27,2.71-4.52v-.84c0-3.52-.91-4.24-2.94-4.24H53.9l0,9.6Z"/><path class="cls-3" d="M66,105.78c3.12,0,4.7,1.9,4.71,5.19s-1.51,5.25-4.86,5.26-4.79-1.86-4.8-5S62.79,105.78,66,105.78Zm1.72,4.75c0-3-.1-4.45-1.84-4.45s-1.87,1.54-1.86,4.51v1c0,2.73.19,4.29,1.88,4.29s1.82-1.41,1.81-4.33Z"/><path class="cls-3" d="M82.84,105.89v.28H82l0,9.6h.8V116H78.45v-.28h.8l0-9.06h-.06L77,116.05H75.2l-2.58-9.37h-.06l0,9.1h.8v.28h-2v-.28h.8l0-9.6h-.8v-.28H75.3l1.95,7.46L79,105.9Z"/><path class="cls-2" d="M29.75,28.75v.13h-.37v4.4h.37v.13h-2v-.13h.37V29.13h0l-1,4.29h-.83l-1.18-4.3h0v4.18h.37v.13h-.9V33.3h.37v-4.4H24.5v-.13h1.8l.89,3.42L28,28.76Z"/><path class="cls-2" d="M40.59,28.65c1.43,0,2.16.87,2.16,2.38s-.69,2.41-2.23,2.41a2,2,0,0,1-2.2-2.32A2.17,2.17,0,0,1,40.59,28.65Zm.79,2.18c0-1.36,0-2-.84-2s-.86.71-.85,2.07v.48c0,1.25.09,2,.86,2s.84-.65.83-2Z"/><path class="cls-2" d="M53.2,28.69v.13h-.37v2.1h.05l1.87-2.09h-.53v-.13H55.4v.13H55l-1.14,1.28,1.61,3.12h.36v.13H53.69v-.13H54L52.9,31.1h-.06v2.11h.37v.13h-2v-.13h.37v-4.4h-.37v-.13Z"/><path class="cls-2" d="M66,28.58c1.43,0,2.16.87,2.16,2.38s-.69,2.41-2.23,2.41a2,2,0,0,1-2.2-2.32A2.17,2.17,0,0,1,66,28.58Zm.79,2.18c0-1.36,0-2-.84-2s-.86.71-.85,2.07v.48c0,1.25.09,2,.86,2s.84-.65.83-2Z"/><path class="cls-2" d="M80.47,30.28h-.13c-.36-1.08-.57-1.53-1.18-1.53h-.08v4.38h.57v.14H77.24v-.14h.57V28.76h-.09c-.61,0-.83.5-1.17,1.53h-.13l.06-1.67H80.4Z"/><path class="cls-2" d="M91,28.51c1.43,0,2.16.87,2.16,2.38S92.52,33.3,91,33.31A2,2,0,0,1,88.78,31,2.17,2.17,0,0,1,91,28.51Zm.79,2.18c0-1.36,0-2-.84-2s-.86.71-.85,2.07v.48c0,1.25.09,2,.86,2s.84-.65.83-2Zm-.66-3.47.32,0c.24,0,.32.17.32.3a.43.43,0,0,1-.29.39l-1.06.44-.05-.07Z"/><path class="cls-2" d="M104.48,29.94l-.4-1.27h-.38v-.13h2.06v.13h-.39l1,3.14.79-3.15h-.67v-.13h1.33v.13h-.44l-1.21,4.6h-.59l-1-3-.86,3h-.58l-1.69-4.59h-.31v-.13h2.16v.13h-.47l1.09,3.18Z"/><line class="cls-4" x1="23.02" y1="156.44" x2="23.97" y2="156.44"/><line class="cls-5" x1="25.88" y1="156.44" x2="105.35" y2="156.44"/><line class="cls-4" x1="106.31" y1="156.44" x2="107.26" y2="156.44"/><line class="cls-6" x1="24.32" y1="21.98" x2="25.27" y2="21.98"/><line class="cls-7" x1="27.16" y1="21.98" x2="105.37" y2="21.98"/><line class="cls-6" x1="106.32" y1="21.98" x2="107.26" y2="21.98"/><path class="cls-3" d="M101.65,47.14v-.43l-.76-.76a.15.15,0,0,0-.22.22Z"/><path class="cls-3" d="M101.65,66.23v-4.1A17,17,0,0,0,101.65,66.23Z"/><path class="cls-3" d="M83.37,45.17H81.32A3.12,3.12,0,0,0,83.37,45.17Z"/><path class="cls-3" d="M32.35,62.13A17.12,17.12,0,0,0,31,57.32v2.38l.14.12a.29.29,0,0,0,.15.08q.1.36.18.73a3.14,3.14,0,0,0-.47-.25v.32a3,3,0,0,1,.52.32l0,0c.05.28.1.57.14.85a2.74,2.74,0,0,0-.69-.25v1a2.05,2.05,0,0,1,0,3.16v1a2.73,2.73,0,0,0,.67-.24q-.06.43-.15.85h0a2.87,2.87,0,0,1-.5.31h0v.62l3.94.18a23.74,23.74,0,0,1,9.52,2c3.26,1.64,5.85,4.74,6,8.46l-1,.44a9.28,9.28,0,0,0-3.85-7.08c-2.74-2.08-6.24-2.75-9.59-3-1.68-.11-3.36-.19-5-.27v.3c1.71.07,3.42.15,5.12.27,5.71.38,13,3.07,13.06,9.89q-1,.47-1.9,1c-.14-5.66-6.16-8-11-8.29-1.76-.12-3.53-.2-5.3-.28v.31c1.71.07,3.42.15,5.13.26C40.89,72.91,47,75.08,47,80.78l-.62.35c-.1-5.21-5.56-7.38-10-7.7-1.78-.13-3.57-.21-5.36-.28v.72a1.1,1.1,0,0,1,.32-.09l.49,0,.22.05c2,.57.57,4.1,0,5.54L31,79.3v.6l4.69.42c2.43.22,5.69.9,5.92,3.9a.31.31,0,0,0,0,.13l-.54.44c-.63-3.86-6.39-3.55-9.3-3.92a.15.15,0,0,0-.15.15c.37,2.91.06,8.63,3.88,9.29l-.44.54-.09,0c-3-.23-3.68-3.5-3.9-5.92,0-.39-.07-.78-.1-1.17v4.48l.13,0a6.35,6.35,0,0,0,.81,1.5c-.25.22-.58.53-.95.85V91c.43-.38.87-.72,1.21-1a4.15,4.15,0,0,0,1.57,1.13,12.05,12.05,0,0,1-.89,2.31A2.74,2.74,0,0,1,31,94.85v.65a7,7,0,0,0,.83.08l-.35.62c-.16,0-.32,0-.47,0v.3l.31,0c-.11.2-.21.4-.31.6v1.8a.71.71,0,0,1,1.11.81.7.7,0,0,1-1.11.2v.65a.68.68,0,0,1,0,1.23v2.36c.14-.41.27-.82.42-1.22a6.09,6.09,0,0,0,0,2.09l0,0c-.14.45-.26.91-.38,1.37v1.22c.16-.69.34-1.37.53-2.05a6.3,6.3,0,0,0,.37,1,6.56,6.56,0,0,0,3.56,3.32,6.57,6.57,0,0,0-3.32.82,6.37,6.37,0,0,0-1.14.81V112a6.12,6.12,0,0,1,1.28-1,6.28,6.28,0,0,1,4.36-.64,1.47,1.47,0,0,0,.7,1.44h0a5.16,5.16,0,0,0-2.38-.54h-.15l-.19,0a5.23,5.23,0,0,0-2.05.6l-.09.05-.05,0h0l0,0A5,5,0,0,0,31,113.19v.61c.75-1,2,.86,2.57,1.63a5.14,5.14,0,0,1-2.57-.59v.61a3.77,3.77,0,0,1,1.48.36H34a1.06,1.06,0,0,1,1-.64,1,1,0,0,1,1,.64h.72c.2-.66.91-.86,1.76-.85a13.48,13.48,0,0,1,2.94.53c0,.11,0,.22,0,.32H42a25.09,25.09,0,0,1,49.17-6.67,24.74,24.74,0,0,1,1,6.67h.61c0-.11,0-.22,0-.34a14.65,14.65,0,0,1,2.61-.5c1-.06,1.82.1,2,.84h.72a1,1,0,0,1,1-.64,1.06,1.06,0,0,1,1,.64h1.51l.12,0v-.44c-.45.07-.9.1-1.21.11a8.6,8.6,0,0,1,1.21-1.49v-.54a6.82,6.82,0,0,1-1.77,1.45c.08-1,.32-3.39,1.59-2.61a1.15,1.15,0,0,1,.18.14V112h0a5.24,5.24,0,0,0-2.22-.68l-.17,0h-.15a5.17,5.17,0,0,0-2.37.54h0a1.47,1.47,0,0,0,.7-1.44,6.32,6.32,0,0,1,4.28.61v-.34a6.59,6.59,0,0,0-3.1-.7,6.56,6.56,0,0,0,3.1-2.51v-.57A6.3,6.3,0,0,1,97.29,110a1.5,1.5,0,0,0-1.21-1.06l0,0a5.17,5.17,0,0,0,2.5-.44l0,0h0l.06,0a5,5,0,0,0,2.51-6.36,4.79,4.79,0,0,0-3.81-3,5.23,5.23,0,0,0-2.39.21l-.18.05-.17.08a5.18,5.18,0,0,0-1.93,1.38h0a1.5,1.5,0,0,0,.1-1.6,6.33,6.33,0,0,1,4.62-1,5.85,5.85,0,0,1,4.21,3V98.35a.67.67,0,0,1-.6-.34.71.71,0,0,1,.6-1V94.13a3.19,3.19,0,0,1-.52-.69,12,12,0,0,1-.89-2.31,4.11,4.11,0,0,0,1.42-1v-.87A3.37,3.37,0,0,1,99,90.82a.29.29,0,0,0-.15.05l-.45-.55c1.88-.29,2.77-1.79,3.24-3.59V84.48l-.08.72c-.25,2-.86,4.55-3.29,4.85l-.07,0-.52-.61c2.68-.82,2.79-4.53,3.26-6.82a.3.3,0,0,0-.36-.36c-2.29.47-6,.58-6.82,3.26l-.6-.52a.16.16,0,0,0,0-.07c.29-2.44,2.83-3,4.85-3.29l2.15-.25c.23,0,1-.22,1.48-.24v-.24c-3,.29-8.17.23-8.74,3.88l-.55-.45a.31.31,0,0,0,0-.14c.23-3,3.5-3.68,5.92-3.9l3.33-.3V78.58c-.55-1.54-1.24-3.87,0-4.59v-.78c-1.33.06-2.67.13-4,.22-4.45.32-9.89,2.47-10,7.66L87,80.73c.05-5,5.07-7.48,9.42-8,1.72-.2,3.46-.29,5.21-.35V72.1c-1.31.06-2.62.13-3.93.22-4.81.33-10.82,2.62-11,8.24-.63-.35-1.26-.68-1.9-1,.07-5.83,5.83-8.9,10.95-9.61,1.93-.27,3.9-.39,5.87-.47v-.24c-1.23.06-2.45.13-3.67.21-3.3.22-6.73.87-9.45,2.87a9.33,9.33,0,0,0-4,7.12l-1-.45c.16-3.7,2.74-6.76,6-8.39a23.65,23.65,0,0,1,9.52-2l2.58-.12v-.62l-1.61.08a19.14,19.14,0,0,1,.36-9,18.7,18.7,0,0,1,1.24-3.13v-.65a19.08,19.08,0,0,0-1.92,12.84l-1.2.07A20.66,20.66,0,0,1,99,58.42a20.35,20.35,0,0,1,2.67-5.69v-1l-.38.53-3.62-2.43a.13.13,0,0,0-.19.05.15.15,0,0,0,0,.21l3.6,2.42-.36.56h0c-1.14-.42-7-2.62-4.27-4.48,1.66-1.14,4.18,2,5.19,3.09v-3c-1.44-1-3-2.34-2.42-3.54h-1A28.2,28.2,0,0,0,91,60.43a27.87,27.87,0,0,0,.23,8.81q-.69.24-1.36.54a29.54,29.54,0,0,1,.62-13.95,29.22,29.22,0,0,1,5.77-10.66h-.35a29.43,29.43,0,0,0-6.34,24.75c-.32.15-.63.31-.93.49a30.83,30.83,0,0,1,.53-14.78,30.52,30.52,0,0,1,5.4-10.45h-1a.55.55,0,0,1-.07.16.51.51,0,0,1-.91-.16H91.29l-.08.12a.69.69,0,0,1,0-.12h-.49a.61.61,0,0,1-.56.41.62.62,0,0,1-.6-.41h-.63a.39.39,0,0,1-.2.06.41.41,0,0,1-.22-.06h-.86a20.38,20.38,0,0,1-8.87,14.62l-.8-.9a19.21,19.21,0,0,0,8.44-13.72h-.29a18.88,18.88,0,0,1-8.36,13.49l-1.25-1.39a17.15,17.15,0,0,0,4.23-3.84,17.39,17.39,0,0,0,3.49-8.27h-.58c0,.24-.07.48-.11.71h0c-1.55,1.23-3.36.3-4.71-.73h-.62c1.68,1.28,3.58,2.24,5.27,1.13q-.08.36-.17.72a.3.3,0,0,0-.14.07c-2,1.86-4.43.06-6-1.38l-.59-.54h-.92c.65.6,1.31,1.2,2,1.76l-4.24-1.76h-.64l4.78,2c-1.28-.14-2.59-.18-3.88-.21L71,45.2c-.13-.09-.25.12-.12.21l2.28,1.52-1.67-.06-.1,0-1.71-1.71h-.35l1.88,1.88a.25.25,0,0,0,0,.1c0,.56,0,1.11.07,1.67l-1.52-2.28c-.08-.13-.29,0-.21.12l1.74,2.61c0,.8,0,1.6.1,2.4l-.91-1-2.29-5.52h-.27l2.07,5-1.73-1.9-.19-1c0-.15-.26-.09-.23.06l.11.57-.72-.8-.08-.06q0-.94,0-1.88h-.27q0,.94,0,1.88l-.08.06-.72.8.11-.57c0-.15-.2-.21-.23-.06l-.19,1L64,50.16l2.07-5h-.27l-2.29,5.52-.91,1c0-.8.07-1.6.1-2.4l1.74-2.61c.09-.13-.12-.25-.21-.12l-1.52,2.28c0-.56,0-1.12.07-1.67a.25.25,0,0,0,0-.1l1.88-1.88h-.35l-1.71,1.71-.1,0-1.67.06,2.28-1.52c.13-.08,0-.29-.12-.21l-2.61,1.74c-1.3,0-2.6.07-3.88.21l4.78-2h-.64l-4.24,1.76c.68-.56,1.34-1.15,2-1.76h-.92l-.59.54c-1.59,1.45-4,3.24-6,1.38a.3.3,0,0,0-.14-.07q-.09-.36-.17-.72c1.7,1.11,3.6.14,5.27-1.13h-.62c-1.36,1-3.17,2-4.71.73h0c0-.24-.08-.48-.11-.71h-.58a17.39,17.39,0,0,0,3.49,8.27,17.15,17.15,0,0,0,4.23,3.84l-1.25,1.39A18.88,18.88,0,0,1,47.9,45.17h-.29A19.21,19.21,0,0,0,56,58.89l-.8.9a20.38,20.38,0,0,1-8.87-14.62h-.86a.41.41,0,0,1-.22.06.39.39,0,0,1-.2-.06h-.63a.62.62,0,0,1-.6.41.61.61,0,0,1-.56-.41h-.49a.61.61,0,0,1,0,.16l-.11-.16H41.43a.51.51,0,0,1-.91.16.55.55,0,0,1-.07-.16h-1a30.52,30.52,0,0,1,5.4,10.45,30.83,30.83,0,0,1,.54,14.76c-.3-.17-.62-.33-.93-.48a29.61,29.61,0,0,0,.35-9.41,29.84,29.84,0,0,0-6.69-15.31h-.35a29.23,29.23,0,0,1,5.77,10.66,29.53,29.53,0,0,1,.63,13.93q-.67-.3-1.36-.53a27.86,27.86,0,0,0,.23-8.8,28.2,28.2,0,0,0-7.22-15.26h-1c.85,1.6-2.36,3.54-3.74,4.37V51a20.5,20.5,0,0,1,4,7.45A20.66,20.66,0,0,1,35.45,68l-1.2-.07A19.17,19.17,0,0,0,31,53v.5a18.9,18.9,0,0,1,2.56,5.41,19.14,19.14,0,0,1,.36,9l-1.87-.1A17.14,17.14,0,0,0,32.35,62.13Zm.57,17.06v0h0Zm2.41.46-1.71-.15c-.23-1.5-1-6.17,1.69-5.41C37.3,74.68,35.86,78.23,35.32,79.66Zm65.79-.48v0h0ZM98.73,74.1c2.65-.76,1.91,3.91,1.69,5.41l-1.71.15C98.17,78.23,96.74,74.67,98.73,74.1Zm1.78-25c.55-.59,1.49.16,1,.79a.63.63,0,0,1-.93,0A.64.64,0,0,1,100.52,49.1Zm-1.19-1c.49-.51,1.32.15.85.71S98.94,48.7,99.33,48.12Zm-1.6-1.32c.71-.76,1.93.22,1.26,1S97.14,47.65,97.73,46.81Zm-6.1,20.11a.82.82,0,1,1,.8.73A.83.83,0,0,1,91.62,66.92ZM97.85,68A26.81,26.81,0,0,0,92,69c.36-1.79,4.59-1.46,5.87-1.42,0,.15.05.3.08.46Zm-4.16-1.32a.56.56,0,1,1,.54.5A.56.56,0,0,1,93.69,66.72Zm1.53-.15a.62.62,0,1,1,.63.57A.63.63,0,0,1,95.22,66.57Zm1.59.68h0Zm.87-1v.11a.43.43,0,0,1-.43.41.42.42,0,1,1,.42-.52Zm0-4a.42.42,0,1,1,0-.25C97.67,62.09,97.66,62.17,97.65,62.26Zm.79-4.12a.43.43,0,1,1,.07-.23Zm-.63-1.2h0Zm1.84-4h0Zm-.3.79c.3-.49,1,0,.73.43A.43.43,0,0,1,99.35,53.76ZM97.92,53a.62.62,0,0,1,1.1.58A.62.62,0,0,1,97.92,53Zm-1.36-.73a.56.56,0,1,1,1,.56A.56.56,0,0,1,96.56,52.26Zm-1.83-1a.81.81,0,1,1,1.4.83A.81.81,0,0,1,94.73,51.28Zm-.89,2c1.4-1.44,4.52,1.18,5.7,2-.1.21-.19.42-.28.63l0,0-4-1.64a.16.16,0,0,0-.21.08.12.12,0,0,0,.06.18l4,1.64h.07q-.13.32-.26.65C97.57,56.61,91.58,55.58,93.84,53.25Zm3.49,4.38a.62.62,0,1,1-1.2-.34A.62.62,0,0,1,97.33,57.63Zm-1.61-.45a.56.56,0,0,1-1.06-.33A.56.56,0,0,1,95.72,57.19Zm-1.49-.45a.82.82,0,0,1-1.56-.49A.82.82,0,0,1,94.24,56.74Zm-1.58-1h0Zm-.29.93h0ZM92,58.77c.62-2.33,4.86-.12,6.14.47-.05.22-.1.44-.15.66l-4.22-.83a.15.15,0,0,0-.18.12.13.13,0,0,0,.1.17l4.24.83q-.07.34-.12.68C96.37,60.93,91.33,61.32,92,58.77ZM96.46,62a.62.62,0,1,1-.56-.68A.63.63,0,0,1,96.46,62ZM94.8,61.8a.56.56,0,1,1-1.11-.06.56.56,0,0,1,1.11.06Zm-2.34-1a.81.81,0,1,1-.84.73A.83.83,0,0,1,92.46,60.8Zm5.13,2.59c0,.23,0,.45,0,.68H93.25a.15.15,0,0,0,0,.31h4.32q0,.34,0,.68c-1.39.33-6.13,1.7-6.13-.83S96.19,63.06,97.59,63.39ZM46.42,68.88a.53.53,0,1,1,1,.16A.53.53,0,0,1,46.42,68.88Zm.88-3.95a.7.7,0,0,1-.69-.59c0-.09,0-.17,0-.26a.7.7,0,1,1,.68.84Zm.48.91a.53.53,0,0,1-1.06-.07A.53.53,0,0,1,47.78,65.84Zm-1.06-3.17a.53.53,0,0,1,1.06-.07.53.53,0,1,1-1.06.07Zm.49-.92a.69.69,0,0,1-.72-.47c0-.1,0-.21,0-.31a.7.7,0,0,1,.57-.61.7.7,0,1,1,.18,1.39ZM47.09,60a.53.53,0,1,1,.37-.59A.54.54,0,0,1,47.09,60Zm0,8.08a.71.71,0,0,1-.63-.75v0a.7.7,0,0,1,1.39.15A.7.7,0,0,1,47.08,68.09Zm.62,4q.2-.82.36-1.65c.46.31.93.62,1.4.9v-.07a11.12,11.12,0,0,0,.44,3.67A11.1,11.1,0,0,0,47.71,72.09ZM48.09,58l.12.09a.56.56,0,0,1,0,.73C48.2,58.5,48.14,58.22,48.09,58Zm.41,11.16a.71.71,0,0,1,1-.18.69.69,0,0,1,.25.34c0,.16-.07.32-.1.48s0,.13,0,.19a.65.65,0,0,1-.93.15A.71.71,0,0,1,48.5,69.11Zm0-1.63q.06-.59.1-1.18.8.62,1.64,1.18c-.12.33-.23.66-.32,1C49.44,68.16,49,67.82,48.5,67.48Zm2.16-3.62a.81.81,0,1,1,0-1.17A.83.83,0,0,1,50.67,63.86Zm.2-2.38a.55.55,0,1,1,0,.82A.56.56,0,0,1,50.86,61.48Zm.08,4.36c-.22.44-.41.88-.59,1.34q-.88-.6-1.72-1.26,0-.9.05-1.81A28.35,28.35,0,0,0,50.94,65.84ZM49.92,80a.7.7,0,0,1,.58,1.28A.7.7,0,0,1,49.92,80ZM50,81.66l0,0,0,0Zm.89.23A6.14,6.14,0,0,0,49.86,83l-.1.13,0,0a39.41,39.41,0,0,0-6.59,4.41.13.13,0,0,0,0,.05l-.21.05a6,6,0,0,0-1.4.56A38.79,38.79,0,0,1,50.93,81.89Zm1.62-.61a5.82,5.82,0,0,1,4.35-.08,6.28,6.28,0,0,1,3.89,4.72,1.5,1.5,0,0,0-1.06,1.21l0,0a5.15,5.15,0,0,0-.44-2.5l0,0v0a4.93,4.93,0,0,0-9.16,3.64,1.06,1.06,0,0,0,.05.18l.08.17a5.18,5.18,0,0,0,1.38,1.93.09.09,0,0,1,0,0A1.5,1.5,0,0,0,50,90.4a6.21,6.21,0,0,1,.09-7.23A5.86,5.86,0,0,1,52.55,81.29Zm-1.47-.12,0-.08a.35.35,0,0,0,0,.06Zm.63-1.92a.72.72,0,0,1,.89.32.7.7,0,1,1-1.27.6A.71.71,0,0,1,51.71,79.25Zm29.77,2a5.84,5.84,0,0,1,3.31,3.49A6.3,6.3,0,0,1,84,90.4l-.19-.08a1.48,1.48,0,0,0-1.41.19.09.09,0,0,1,0,0,5.17,5.17,0,0,0,1.38-1.93l.08-.17a1.12,1.12,0,0,0,0-.17,4.93,4.93,0,0,0-9.11-3.74l-.06.12,0,.07a5.14,5.14,0,0,0-.43,2.47l0,0a1.5,1.5,0,0,0-1.06-1.21,6.31,6.31,0,0,1,3.5-4.55A5.83,5.83,0,0,1,81.48,81.29Zm-.07-1.66a.71.71,0,0,1,.92-.38.72.72,0,0,1,.4.85.7.7,0,1,1-1.32-.47Zm3.18,4a38.72,38.72,0,0,1,5.78,3.87,6.45,6.45,0,0,0-3.62.62,6.66,6.66,0,0,0-1.87,1.36,6.53,6.53,0,0,0,.18-4.83A6.07,6.07,0,0,0,84.59,83.63Zm-6.76,2.31c-1,0-3.53,0-2.73-1.3C75.81,83.46,77.19,85.15,77.83,85.95Zm-2.37-2h0Zm1.39,2.77a.56.56,0,0,1,.73-.3.52.52,0,0,1,.32.4.64.64,0,0,1,0,.33.57.57,0,0,1-.68.32.54.54,0,0,1-.28-.2v0A.56.56,0,0,1,76.84,86.76Zm-.28-3.85c1.18-.85,1.59,1.4,1.77,2.41C77.43,84.85,75.38,83.77,76.57,82.91Zm2.15-.9c1.46-.12.71,2,.36,3a13.07,13.07,0,0,1-.8-1.4C78,83.07,77.8,82.08,78.72,82Zm-.45,4.3a1,1,0,1,1,2,.71,1,1,0,0,1-.34.44,1.12,1.12,0,0,1-1,.13,1.1,1.1,0,0,1-.65-1A1.06,1.06,0,0,1,78.27,86.3Zm2.26-.68c.44-.93,1.45-3,2.35-1.85S81.53,85.42,80.53,85.62Zm3.31.23c.31,1.51-2,.83-3,.51C81.67,85.78,83.56,84.48,83.84,85.85Zm-3.95-.71c-.07-1-.21-3.34,1.15-2.78S80.66,84.46,79.89,85.13Zm0,2.88a.67.67,0,0,1,.24-.27.55.55,0,0,1,.66.08.56.56,0,0,1,.12.61.55.55,0,0,1-.72.3A.56.56,0,0,1,79.86,88Zm.91-.84a13.5,13.5,0,0,1,1.56-.06c.53,0,1.39.24,1.37.83l-.05.17a2.93,2.93,0,0,1-.11.29c-.58.92-1.73-.11-2.46-.88ZM62.37,84a.14.14,0,0,1,0,0c.08-1.45,2.17-.36,3.05.12C64.53,84.52,62.32,85.49,62.37,84Zm.05.81,0,0a.33.33,0,0,1,0,0Zm.05-1.62v0h0ZM63,81.75c.77-1.26,2.09.76,2.61,1.59C64.69,83.26,62.27,83,63,81.75Zm2.34,2.93a.56.56,0,0,1,0,1.12.54.54,0,0,1-.26-.07L65,85.63a.56.56,0,0,1,.4-.95Zm-.65-4.56c1.29-.73,1.45,1.68,1.5,2.66C65.43,82.23,63.44,80.85,64.74,80.12Zm2.28,3A1.05,1.05,0,1,1,66,84.16,1.06,1.06,0,0,1,67,83.11Zm0-3.59c1.48,0,.44,2.16,0,3.05C66.57,81.68,65.54,79.52,67,79.52Zm.78,3.26c.05-1,.21-3.39,1.5-2.66S68.61,82.23,67.8,82.78Zm3.19-1c.78,1.27-1.65,1.51-2.61,1.59C68.9,82.51,70.22,80.5,71,81.75Zm-2.34,2.93a.56.56,0,0,1,.39.95l-.13.1a.55.55,0,0,1-.26.07.56.56,0,1,1,0-1.12Zm0-.57c.84-.45,2.81-1.48,3-.28,0,.12,0,.24,0,.35C71.54,85.42,69.46,84.51,68.61,84.11Zm2.93-.92h0v0Zm.09,1.62v0h0Zm.33-.66A1.07,1.07,0,0,0,72,84a1.18,1.18,0,0,0,0-.19,5.24,5.24,0,0,0-.6-2.05l0-.09,0-.06v0l0,0a4.89,4.89,0,0,0-8.42,0v0a5.24,5.24,0,0,0-.68,2.22,1.21,1.21,0,0,0,0,.17,1.12,1.12,0,0,0,0,.15,5.17,5.17,0,0,0,.54,2.37v0a1.47,1.47,0,0,0-1.44-.7,6.32,6.32,0,0,1,1.55-5.61A5.75,5.75,0,0,1,67,78.41a5.94,5.94,0,0,1,5.2,3.09,6.28,6.28,0,0,1,.64,4.36,1.47,1.47,0,0,0-1.44.7v0A5.17,5.17,0,0,0,71.95,84.16Zm-6.36-5.89a6,6,0,0,0-1.88.79h-.06a39.29,39.29,0,0,0-7.78,1.54l-.05,0a6.1,6.1,0,0,0-1.78,0A37.83,37.83,0,0,1,65.59,78.27Zm-11,1.5,0-.07s0,0,0,.06ZM67,75.4a2.2,2.2,0,1,1,2.2-2.2A2.23,2.23,0,0,1,67,75.4Zm.7,1.51a.7.7,0,1,1-.7-.7A.71.71,0,0,1,67.72,76.91Zm-2.59.75A.7.7,0,1,1,65,76.25.71.71,0,0,1,65.13,77.66Zm.64,0h0Zm-1.26.08h0Zm-.28-2.18-.79.07,0,0c-1.51-1.92-.15-4.15,1.1-5.76l1.34-1.7c.21-.26.89-1.42,1.16-1.42s1,1.21,1.16,1.42l1.26,1.59c1.28,1.63,2.73,3.89,1.18,5.86h0l-.79-.06c1.24-2.46-1.27-5.13-2.54-7.06a.3.3,0,0,0-.52,0C65.48,70.43,63,73.11,64.22,75.58Zm-.45-6.89c1.08-1.3,2.17-2.58,3.24-3.87,1.07,1.3,2.16,2.58,3.24,3.87,1.56,1.87,3.39,4.67,1.43,6.95l0,.07L71,75.64c2.22-3.17-2-7-3.83-9.31a.15.15,0,0,0-.21,0c-1.81,2.33-6.09,6.17-3.81,9.35l-.69.08a.32.32,0,0,0-.06-.12C60.39,73.36,62.22,70.56,63.77,68.69ZM62,78v0h0Zm-.83-1.36a.7.7,0,0,1,.17,1.4A.7.7,0,0,1,61.16,76.64Zm-.39,1.57h0l0,0ZM59.22,77a.7.7,0,0,1,.26,1.38A.71.71,0,0,1,59.22,77Zm-.88-.53h0A5.6,5.6,0,0,0,59,76.3h0Zm-1.91-1.15c-1.37-2.63,2.93-2.37,4.52-2.21a4.17,4.17,0,0,0,.31,1.9C59.89,75.71,57.38,77.11,56.43,75.29Zm1.84,3.37v0h0Zm-1-1.26a.7.7,0,0,1,.34,1.36A.7.7,0,0,1,57.3,77.41ZM57.1,79h0l0,0Zm.28-2.4.16,0-.14,0Zm-1.2-7c1.19-1.44,4,.57,5.3,1.37A6.42,6.42,0,0,0,61,72.66C59.58,72.56,54.17,72.09,56.18,69.65Zm-.06-.38,0-.1h.06ZM66.8,64.15l-1.11,1.32c-1.36-.63-5.13-2.38-3.84-4.07l.25-.27C63.7,59.69,65.91,62.94,66.8,64.15ZM63.51,60A.77.77,0,0,1,65,59.83c0,.06,0,.11,0,.17a.77.77,0,0,1-1.54,0ZM67,56.62c1.49,0,1.77,1.71,1.7,2.88A8.27,8.27,0,0,1,67,63.93a8.28,8.28,0,0,1-1.69-4.29C65.23,58.47,65.46,56.61,67,56.62Zm-.06-.5.06,0,.06,0Zm5,5,.21.23c1.37,1.73-2.41,3.46-3.8,4.11l-1.11-1.32C68.11,63,70.36,59.66,71.93,61.13ZM69,60a.77.77,0,1,1,.77.77A.78.78,0,0,1,69,60Zm8.88,9.66c2,2.43-3.4,2.91-4.82,3A6.25,6.25,0,0,0,72.55,71C73.81,70.22,76.66,68.21,77.85,69.65Zm0-.47h.06l0,.1Zm-5,5.8a4.18,4.18,0,0,0,.31-1.9c1.59-.16,5.89-.41,4.52,2.21C76.64,77.11,74.14,75.71,72.77,75Zm3.63,3.78a.7.7,0,0,1,.34-1.36A.7.7,0,0,1,76.4,78.77Zm-1.84-.41A.7.7,0,0,1,74.81,77,.7.7,0,0,1,74.55,78.36ZM72.7,78a.71.71,0,0,1,.17-1.4A.71.71,0,0,1,72.7,78Zm2.76-5.33.33-.06a.12.12,0,0,0,0,.09Zm-.51-3.48a17,17,0,0,1-2.72,1.16,8.72,8.72,0,0,0-.64-1L71.25,69c1-1.13,3.17-3.82,4.71-2.78S76,68.64,74.95,69.22Zm-.69-3.33h0ZM70.45,68l-1.11-1.31c.87-1.19,3.14-4.52,4.72-3C76,65.42,71.89,67.29,70.45,68Zm.32.18h0Zm-1.68-2.22h0Zm-4.12,0h0Zm-.28.72L63.58,68C62.16,67.29,58,65.39,60,63.62,61.58,62.15,63.81,65.43,64.69,66.64Zm-1.41,1.5h0Zm-3.51-2.25h0Zm3,3.06-.34.44a8.74,8.74,0,0,0-.64,1c-1.41-.51-6.32-2.46-3.74-4.2C59.61,65.14,61.79,67.83,62.78,69Zm-4.2,3.75-.37,0a.12.12,0,0,0,0-.09Zm3.16,3.13v0h0Zm9.83,1.32a.71.71,0,0,1-.77.64.72.72,0,0,1-.64-.71.7.7,0,1,1,1.4.07ZM63.1,76.4a.7.7,0,0,1,.76.63.7.7,0,1,1-.76-.63Zm4.71-5.56h0Zm-1.57,0,0,0,0,0Zm-.62,4.61.05.05h0Zm2.79,0,0,0h0Zm.57.81a.7.7,0,1,1-.08,1.41A.7.7,0,0,1,69,76.25Zm.12,2a37.12,37.12,0,0,1,11,2.3,6,6,0,0,0-1.89,0l0,0a39.28,39.28,0,0,0-7.78-1.54h-.06a6,6,0,0,0-1.92-.8Zm9.11,1a.7.7,0,0,1,.42-1.34A.7.7,0,0,1,78.21,79.27Zm-.92-2.52c3.55-3.79,1.18-9.15-1.75-12.52-2.71-3.11-5.57-6.08-8.32-9.15a.3.3,0,0,0-.42,0c-2.75,3.07-5.61,6-8.32,9.15-3,3.39-5.33,8.79-1.7,12.58L56.1,77c-3.67-3.72-1.61-9.16,1.23-12.66,1.9-2.34,4-4.5,6.07-6.72,1.09-1.19,2.12-2.53,3.3-3.62.36-.34.19-.3.53-.1a4.36,4.36,0,0,1,.72.8l1.66,1.82c2.12,2.31,4.27,4.6,6.34,6.95,3.15,3.57,6,9.38,2,13.46ZM55.82,79.27a.7.7,0,0,1-.42-1.34A.7.7,0,0,1,55.82,79.27Zm7.42.12a6.22,6.22,0,0,0-.71.65,6.56,6.56,0,0,0-1.78,4.63A6.53,6.53,0,0,0,57,80.94a5.76,5.76,0,0,0-.6-.2A38.85,38.85,0,0,1,63.23,79.39Zm9.23,2a6.36,6.36,0,0,0-1.67-2,38.66,38.66,0,0,1,6.82,1.35,6.29,6.29,0,0,0-1,.37,6.56,6.56,0,0,0-3.32,3.56A6.57,6.57,0,0,0,72.46,81.35ZM80,79.87a.7.7,0,0,1,.5-1.32A.7.7,0,0,1,80,79.87Zm.34-2.18c-.67-.24-1.35-.45-2-.65,3.84-4.13,1.16-10-2-13.63-3-3.41-6.14-6.69-9.16-10.07a.15.15,0,0,0-.21,0c-3,3.38-6.17,6.66-9.16,10.07-3.2,3.66-5.89,9.56-2,13.69q-1,.3-2,.65C49.5,73.47,51.62,67,54.86,62.87c2.36-3,5.13-5.77,7.72-8.6,1.35-1.47,2.7-2.95,4-4.44.41-.45.37-.45.78,0l.83.92L70.33,53c2.58,2.82,5.2,5.6,7.72,8.47C81.79,65.8,85.06,72.85,80.35,77.68ZM54,79.87a.7.7,0,0,1-.5-1.32A.7.7,0,0,1,54,79.87Zm-.52.3,0,0,0,0Zm0,5.46c-1-.2-3.26-.7-2.35-1.85S53.06,84.69,53.5,85.62ZM53,82.36c1.35-.56,1.22,1.75,1.15,2.78C53.37,84.46,51.64,82.91,53,82.36Zm.19,4c-1,.31-3.35,1-3-.51C50.52,84.49,52.35,85.77,53.18,86.36Zm-1.56.75a11.94,11.94,0,0,1,1.64.06c-.66.72-2.11,2.29-2.78,1.22-.06-.14-.11-.28-.15-.43C50.31,87.39,51.1,87.13,51.62,87.11Zm1.82.6a.56.56,0,1,1-.3.73A.56.56,0,0,1,53.44,87.71Zm.38-.61a1,1,0,1,1,1.33.47A1.07,1.07,0,0,1,53.83,87.1ZM55.31,82c1.45.23.21,2.16-.36,3a13.48,13.48,0,0,1-.44-1.54C54.38,82.88,54.39,81.86,55.31,82Zm.39,3.32c.17-1,.59-3.27,1.77-2.41S56.61,84.85,55.69,85.32Zm.51.63c.63-.78,2.09-2.53,2.73-1.3C59.65,86,57.23,86,56.2,85.95Zm.94,1.32,0,0a.55.55,0,0,1-.24.19.56.56,0,0,1-.73-.3.57.57,0,0,1,.25-.7.55.55,0,0,1,.73.79ZM58.57,84h0Zm-9.41,8.14h0a5.27,5.27,0,0,0-1.22-2l-.17-.19a1.56,1.56,0,0,0-.25-.19,4.92,4.92,0,0,0-6.93,6.93,1.55,1.55,0,0,0,.2.25l.19.17a5.27,5.27,0,0,0,2,1.22v0a1.48,1.48,0,0,0-1.51.52,6.33,6.33,0,0,1-2.24-2.52,5.94,5.94,0,0,1,1.1-6.87,5.85,5.85,0,0,1,2.66-1.54,6.22,6.22,0,0,1,6.73,2.68A1.48,1.48,0,0,0,49.16,92.13Zm-3.71.26c.26-.89.93-3,1.91-2.36l.31.28C48.4,91.26,46.31,92.07,45.45,92.39Zm.43,1.16c-.48-.53.28-1.3.79-.79S46.41,94,45.88,93.55Zm-2.26-.74c1-1,2.38.48,1.48,1.48S42.66,93.77,43.62,92.81Zm0,3.05c-.51-.51.26-1.27.79-.79S44.08,96.37,43.57,95.86Zm-.76-1.93c-.73.63-2.44,2.07-2.91.84C39.31,93.23,41.81,93.71,42.81,93.93ZM39.89,92.3c.23-.83,1.11-.55,1.61-.22a11.53,11.53,0,0,1,1.32,1,12.8,12.8,0,0,1-1.6.2C40.61,93.35,39.63,93.19,39.89,92.3Zm3.31,2.34c-.32.87-1.15,3-2.12,2.2l-.22-.24C40.15,95.59,42.3,94.91,43.2,94.64Zm-2.12-4.37c1.05-1.05,1.85,1.24,2.16,2.16C42.31,92.12,40,91.31,41.07,90.27Zm1.85.48c-.34-.5-.71-1.42.18-1.67s1,.66,1,1.26A12.2,12.2,0,0,1,43.93,92,12.39,12.39,0,0,1,42.93,90.75ZM44.74,92a11.29,11.29,0,0,1-.26-1.74c0-.61.27-1.57,1.1-1.17C46.77,89.65,45.38,91.26,44.74,92Zm-5-3.09c-.67.6-1.64-.35-1-1S40.33,88.25,39.72,88.92Zm-.53-2.45a.06.06,0,0,1,0,0v0Zm-.77,3.82a.7.7,0,0,1-1.05-.93A.7.7,0,0,1,38.42,90.28Zm-.26-2.93c-2.1,1.88-5.12-1.1-3.11-3.11S40,85.25,38.16,87.35Zm-1,4.37c-.62.65-1.68-.19-1.08-.89S37.68,91,37.18,91.72ZM39,90.64a6,6,0,0,0-.63,1.64l0,0A39.42,39.42,0,0,0,34,98.9a.14.14,0,0,0,0,.06,6.08,6.08,0,0,0-1.47,1.48A38.1,38.1,0,0,1,39,90.64Zm-.73,2.22a6.45,6.45,0,0,0,.62,3.62,6.66,6.66,0,0,0,1.36,1.87,6.54,6.54,0,0,0-5.06-.09,6.33,6.33,0,0,0-.79.38A38.71,38.71,0,0,1,38.31,92.85Zm2.35-4.77h0Zm3-.58a39,39,0,0,1,5.78-3.87,6.53,6.53,0,0,0-.28,5.84A6.52,6.52,0,0,0,43.66,87.5Zm-2.05-.26v0Zm1.57-3.16A.71.71,0,0,1,44,85.2C43.32,85.76,42.45,84.63,43.17,84.09Zm.42,1.55h0l0,0Zm1-.71,0-.05v0Zm2.09-1.45h.07l0,0Zm1.51-2.55c.8-.43,1.42.78.66,1.24A.7.7,0,0,1,48.16,80.93Zm-.41,1.89v.05l0,0Zm-1.3-.92a.7.7,0,0,1,.73,1.2A.7.7,0,0,1,46.45,81.9Zm-.87,2.21c-.77.46-1.55-.65-.8-1.16A.7.7,0,0,1,45.58,84.11Zm-1.12-1.86A6.24,6.24,0,0,0,45,81.9L45,82l-.53.34A.13.13,0,0,0,44.46,82.25Zm1.36-.86,0,.06-.14.09Zm-5.94-4.68h0l0,0Zm-3.31-1.2h0Zm.56,4.36-.55-.07c-.09-1.57-.41-5.9,2-5.26,2.2.58.34,4.21-.32,5.58A8.55,8.55,0,0,0,37.15,79.87Zm3.33,1.29a6.38,6.38,0,0,0-1.5-.81c.35-1.47,1.73-6.61,3.76-4.23C44,77.55,41.44,80.08,40.48,81.16Zm.33.26c.87-1.11,2.59-3.43,4.07-2.53s.51,2.58-.63,3.21a12,12,0,0,1-2.31.89A4.15,4.15,0,0,0,40.81,81.42Zm1.4,2.51h0Zm-.57,1.36c.7-.59,1.55.46.89,1.08a.72.72,0,0,1-.93,0A.71.71,0,0,1,41.64,85.29Zm-.54,2.32c-.68.61-1.6-.45-.93-1.05A.7.7,0,0,1,41.09,87.62ZM32.47,85.2c-.09-.72-.17-1.43-.25-2.15,0-.31-.38-1.63-.18-1.83s1.5.14,1.83.18l2.15.25c2,.25,4.55.86,4.85,3.29l0,0-.61.51c-.84-2.64-4.53-2.75-6.81-3.23a.3.3,0,0,0-.36.36c.47,2.27.58,5.94,3.2,6.8l-.52.6h0C33.32,89.75,32.71,87.22,32.47,85.2Zm1.92-.53h0Zm.51,7.69c.54-.73,1.66.14,1.11.87S34.36,93.09,34.9,92.36ZM33.76,94c.51-.76,1.62,0,1.16.8A.7.7,0,0,1,33.76,94Zm-1.05,1.67a.7.7,0,0,1,1.2.73A.7.7,0,0,1,32.71,95.64Zm-1,1.71A.7.7,0,0,1,33,98C32.52,98.78,31.3,98.16,31.74,97.36Zm5,12.63a6.31,6.31,0,0,1-4.55-3.5,5.92,5.92,0,0,1,3.15-8,6.29,6.29,0,0,1,5.87.68,1.5,1.5,0,0,0,.11,1.6h0a5.17,5.17,0,0,0-1.93-1.38l-.17-.08-.17,0a4.93,4.93,0,0,0-3.74,9.11l.12.06.07,0a5.14,5.14,0,0,0,2.47.43l0,0A1.5,1.5,0,0,0,36.74,110Zm.37-5a1,1,0,1,1,1.28-.6A1.07,1.07,0,0,1,37.11,105ZM38.31,106a.54.54,0,0,1-.2.28h0a.56.56,0,0,1-.53.06.56.56,0,0,1-.3-.73.56.56,0,0,1,1,.38Zm-4.6.62c-.85-1.18,1.4-1.59,2.41-1.77C35.66,105.8,34.58,107.84,33.71,106.65Zm1.08,1.12h0Zm1.64-5.08c-.93-.44-3-1.45-1.85-2.35S36.23,101.69,36.43,102.69Zm.23-3.31c1.51-.31.83,2,.51,3C36.59,101.55,35.29,99.66,36.66,99.39Zm-.71,3.95c-1,.07-3.34.21-2.78-1.15S35.27,102.56,35.94,103.33Zm-.11.8a13.08,13.08,0,0,1-1.4.8c-.55.26-1.54.49-1.62-.43C32.69,103,34.86,103.79,35.83,104.14Zm.93,1.26c0,1,0,3.53-1.3,2.73C34.27,107.41,36,106,36.75,105.4ZM38,102.45a13.49,13.49,0,0,1-.06-1.56c0-.53.24-1.39.83-1.37a4.38,4.38,0,0,1,.46.16C40.27,100.35,38.7,101.79,38,102.45Zm.52.23a.56.56,0,1,1,.32.68A.57.57,0,0,1,38.5,102.68Zm-2.85,8.93v0l0,0Zm-1.64.07h0Zm-1.45.56c1.27-.78,1.51,1.65,1.59,2.61C33.32,114.33,31.3,113,32.56,112.24Zm2.36,2.38c-.45-.84-1.48-2.81-.28-3l.35,0C36.23,111.69,35.31,113.76,34.92,114.62Zm1.13.51a.56.56,0,1,1,.39-1l.1.13a.55.55,0,0,1,.07.26A.57.57,0,0,1,36,115.13Zm5.35-.71a14.75,14.75,0,0,1-2.76.22c-1.21-.06-2.22-.43-1.85-1.65.26-.85,1.15-1,2.12-.82a14.18,14.18,0,0,1,2.62.79Q41.44,113.69,41.4,114.42Zm.28-2.5a15.21,15.21,0,0,1-2.66,0c-1.16-.15-2.12-.58-1.82-1.71s1.27-1,2.32-.72a14.83,14.83,0,0,1,2.44,1Q41.8,111.19,41.68,111.92Zm.53-2.46a15.57,15.57,0,0,1-2.45-.31c-1.42-.32-2.64-.94-1.64-2.18.47-.59,1.29-.52,2.12-.21A13.88,13.88,0,0,1,42.63,108C42.48,108.5,42.33,109,42.21,109.45Zm1-3.13v0l0,0c-.09.22-.17.44-.25.65a16.21,16.21,0,0,1-2.24-.44l-.39-.14c-1-.39-2.25-1.25-1.19-2.3.55-.55,1.39-.38,2.22,0a14.61,14.61,0,0,1,2.17,1.48C43.45,105.89,43.35,106.11,43.25,106.33Zm.74-1.58a15.46,15.46,0,0,1-2.27-.7l-.15-.07c-.94-.45-2.43-1.65-1-2.56a1.75,1.75,0,0,1,1.81.15l.08,0,.31.19a15.3,15.3,0,0,1,1.93,1.64C44.45,103.87,44.22,104.3,44,104.74Zm1.25-2.2a14.59,14.59,0,0,1-2.61-1.22c-1.09-.69-1.8-1.55-.59-2.36.61-.41,1.33-.14,2,.36a13.43,13.43,0,0,1,2,2C45.78,101.72,45.51,102.13,45.25,102.55Zm1.46-2.06a14.31,14.31,0,0,1-2.45-1.37c-.93-.7-1.52-1.54-.64-2.34.66-.6,1.45-.26,2.17.37l.15.14a14.49,14.49,0,0,1,1.7,2.08C47.32,99.73,47,100.1,46.7,100.48Zm1.66-1.91a15.47,15.47,0,0,1-2.18-1.46l0,0-.22-.2c-.72-.7-1.12-1.48-.41-2.18s1.48-.31,2.17.4l.09.1.18.2a15.46,15.46,0,0,1,1.45,2.17C49,97.89,48.69,98.23,48.36,98.58Zm1.83-1.73a14.71,14.71,0,0,1-2.12-1.74L48,95c-.65-.73-1-1.53-.39-2.19.81-.86,1.64-.29,2.32.61a14.24,14.24,0,0,1,1.4,2.5C50.92,96.22,50.55,96.53,50.19,96.84Zm2-1.55a13.83,13.83,0,0,1-2-2c-.5-.69-.76-1.41-.36-2,.85-1.25,2-.09,2.53.78l.06.11a15.11,15.11,0,0,1,1,2.37Q52.76,94.87,52.17,95.29Zm2.12-1.35a16.12,16.12,0,0,1-1.68-2l-.06-.1-.19-.32a1.71,1.71,0,0,1-.14-1.79c.87-1.3,2-.08,2.48.84l.06.12a14.46,14.46,0,0,1,.8,2.54C55.14,93.47,54.71,93.7,54.29,93.94Zm2.24-1.14A14.33,14.33,0,0,1,55,90.46c-.38-.8-.53-1.59,0-2.11,1.1-1.06,1.83,0,2.29,1.27a15.74,15.74,0,0,1,.61,2.62C57.42,92.41,57,92.6,56.54,92.8Zm2.34-.92a14.55,14.55,0,0,1-1.31-2.4c-.32-.85-.4-1.68.2-2.16,1.25-1,1.87.25,2.19,1.67a16.27,16.27,0,0,1,.3,2.46C59.8,91.57,59.34,91.72,58.88,91.87Zm3.85-1c-.48.08-1,.18-1.43.29a15.09,15.09,0,0,1-1-2.44c-.3-1.07-.29-2.08.71-2.34a1.07,1.07,0,0,1,1.26.42,3.24,3.24,0,0,1,.45,1.42A14.93,14.93,0,0,1,62.73,90.89Zm2.5-.32c-.49,0-1,.09-1.46.15A14.38,14.38,0,0,1,63,88.1c-.15-1,0-1.87.82-2.13,1.27-.38,1.63.73,1.66,2A15.34,15.34,0,0,1,65.23,90.57Zm3-2.68a14.66,14.66,0,0,1-.5,2.61c-.49,0-1,0-1.48,0a13.76,13.76,0,0,1-.52-2.77c0-1.06.21-2,1.25-2S68.33,86.78,68.26,87.89Zm2,2.8c-.49-.06-1-.11-1.48-.14a13.72,13.72,0,0,1-.2-2.9c.09-1.13.49-2,1.64-1.67a1.13,1.13,0,0,1,.79.81C71.36,87.89,70.63,89.75,70.28,90.69Zm2,.33-1-.19c-.08-1.4-.3-5,1.73-4.45,1.85.49.32,3.52-.27,4.74Zm1.45.35c.05-.89.23-3,.91-4,.36-.5.87-.66,1.58-.09a1.11,1.11,0,0,1,.27.3,2.4,2.4,0,0,1-.17,2.11,16,16,0,0,1-1.16,2.09C74.73,91.65,74.25,91.51,73.77,91.38Zm2.4.78a16.22,16.22,0,0,1,.44-2.23l0-.09c.32-1,1.25-2.66,2.41-1.49.62.63.32,1.6-.21,2.53a16.81,16.81,0,0,1-1.31,1.87C77.09,92.53,76.64,92.34,76.17,92.16Zm2.31,1a15.34,15.34,0,0,1,.67-2.2l0-.08c.38-.92,1.66-2.65,2.62-1.15a1.75,1.75,0,0,1-.15,1.81l-.19.31,0,.07a15.3,15.3,0,0,1-1.63,1.93Q79.14,93.52,78.48,93.19Zm2.2,1.25a15.78,15.78,0,0,1,1.08-2.38c.54-.92,1.2-1.65,1.86-1.4a1.45,1.45,0,0,1,.64.58c.43.63.12,1.39-.43,2.11a14.28,14.28,0,0,1-1.93,1.92C81.5,95,81.09,94.7,80.68,94.44Zm2.06,1.46a14.62,14.62,0,0,1,1.32-2.38c.7-1,1.56-1.6,2.38-.7.6.66.26,1.45-.37,2.17l-.14.15a14.51,14.51,0,0,1-2.07,1.7C83.5,96.5,83.13,96.19,82.74,95.89Zm8.48-2A11.31,11.31,0,0,1,93,93.67c.61,0,1.57.27,1.17,1.1C93.57,96,92,94.58,91.22,93.93Zm2,2.62-.28.31c-1,.74-1.76-1.36-2.08-2.22C91.72,94.9,93.82,95.57,93.19,96.55Zm-.31-3.23a12.2,12.2,0,0,1-1.67-.21,12.41,12.41,0,0,1,1.26-1c.5-.34,1.42-.71,1.67.18S93.49,93.34,92.89,93.32Zm-2.09-.9c.31-.92,1.11-3.21,2.16-2.16S91.72,92.12,90.8,92.43Zm.35-1.74a11.53,11.53,0,0,1-1,1.32,12.78,12.78,0,0,1-.2-1.6c0-.61.13-1.58,1-1.33S91.47,90.19,91.14,90.69Zm-.73,2.12c1,1-.48,2.38-1.48,1.48S89.46,91.85,90.42,92.81Zm0,3.05c-.51.51-1.27-.26-.79-.79S91,95.35,90.46,95.86ZM89.29,92c-.63-.73-2.07-2.44-.84-2.91C90,88.5,89.51,91,89.29,92Zm-.71.39c-.87-.32-3-1.15-2.2-2.12l.24-.22C87.64,89.34,88.32,91.49,88.58,92.39Zm-.43,1.16c-.53.48-1.3-.28-.79-.79S88.63,93,88.15,93.55Zm-3.5,4a15,15,0,0,1,1.45-2.17l0,0,.2-.22c.7-.72,1.48-1.12,2.18-.41s.31,1.48-.4,2.17l-.3.27a15.44,15.44,0,0,1-2.15,1.44C85.35,98.22,85,97.87,84.65,97.54Zm1.74,1.82a14.61,14.61,0,0,1,1.73-2.09l.1-.09.1-.09c.71-.6,1.47-.9,2.1-.31.89.84.26,1.69-.7,2.39a14.55,14.55,0,0,1-2.39,1.32C87,100.1,86.72,99.72,86.39,99.36Zm1.56,2a14.38,14.38,0,0,1,1.92-1.94c.71-.54,1.48-.85,2.11-.43,1.25.85.09,2-.78,2.53l-.11.06a14.84,14.84,0,0,1-2.33,1C88.51,102.14,88.24,101.73,88,101.34ZM100,111.67v0l0,0Zm-.84-.11h0c1.45.08.36,2.17-.12,3.05C98.7,113.73,97.73,111.51,99.2,111.57Zm-.79,0,0,0,0,0Zm-.92,2.71.09-.13a.56.56,0,1,1-.17.39A.54.54,0,0,1,97.5,114.31ZM97.25,113c.35,1.16-.55,1.55-1.67,1.64a13.69,13.69,0,0,1-2.9-.2c0-.49-.08-1-.14-1.48.94-.35,2.8-1.08,3.9-.75A1.13,1.13,0,0,1,97.25,113Zm-.42-2.79c.54,2-3,1.81-4.45,1.73-.08-.49-.18-1-.3-1.46C93.3,109.87,96.35,108.34,96.83,110.19Zm-1-1.64c-.94.68-3.1.86-4,.91-.13-.48-.27-.95-.43-1.42a16.55,16.55,0,0,1,2.09-1.17c.94-.4,1.89-.57,2.42.1S96.33,108.18,95.83,108.55Zm.64-2.17a.56.56,0,0,1-.51,0l0,0a.55.55,0,0,1-.19-.24.56.56,0,0,1,.3-.73.57.57,0,0,1,.7.25A.56.56,0,0,1,96.47,106.38Zm2.12,1.74c-1.38.72-1.34-1.7-1.3-2.73a8.81,8.81,0,0,1,1.34,1.28C99,107.22,99.23,107.79,98.58,108.12Zm.66-.35a0,0,0,0,1,0,0h0Zm1.08-1.12c-.46.64-1,.34-1.45-.2a8.77,8.77,0,0,1-1-1.56,9.65,9.65,0,0,1,1.6.38C100.26,105.54,100.82,106,100.32,106.65Zm.9-2.15c-.13.84-.83.78-1.56.47a9.69,9.69,0,0,1-1.45-.83,13.45,13.45,0,0,1,1.54-.44C100.34,103.58,101.36,103.58,101.22,104.5Zm-.35-2.31c.32.76-.28,1.05-1,1.15a9.37,9.37,0,0,1-1.73,0,9.47,9.47,0,0,1,1.22-1.22C99.92,101.64,100.55,101.42,100.87,102.19Zm-1.42-1.85c.64.51.27,1-.34,1.5a9,9,0,0,1-1.51.85,7.64,7.64,0,0,1,.61-2C98.5,100.19,98.9,99.91,99.45,100.34Zm-2.19-1,.12,0c.62.15.69.62.52,1.16a7.42,7.42,0,0,1-1,1.82C96.56,101.42,95.91,99.16,97.26,99.36Zm.33,4.18a1,1,0,0,1-.56,1.36,1,1,0,1,1,.56-1.36Zm-2.75-3.87.43-.15c.57,0,.83.76.85,1.29a12.19,12.19,0,0,1-.06,1.64C95.33,101.79,93.76,100.35,94.84,99.67Zm0,2.66a.56.56,0,0,1,.73.3.56.56,0,1,1-.73-.3Zm.09,1.83c1.13,1.17-.1,1.92-1.52,2.37a16.08,16.08,0,0,1-2.31.52c-.18-.46-.37-.91-.57-1.36a16.31,16.31,0,0,1,2-1.4C93.38,103.81,94.3,103.56,94.88,104.17Zm-1.42-2.75c1.36.91,0,2.13-1,2.54l-.13.06a14.76,14.76,0,0,1-2.35.73c-.22-.44-.45-.87-.7-1.29a15.56,15.56,0,0,1,1.94-1.64l.1-.06.32-.19A1.71,1.71,0,0,1,93.46,101.42Zm-.85-2.54a1.48,1.48,0,0,0-1.51-.52v0a5.27,5.27,0,0,0,2-1.22l.19-.17a1.56,1.56,0,0,0,.2-.25,4.92,4.92,0,0,0-6.93-6.93,1.56,1.56,0,0,0-.25.2l-.17.19a5.27,5.27,0,0,0-1.22,2h0a1.48,1.48,0,0,0-.52-1.51,6.33,6.33,0,0,1,2.52-2.24,5.94,5.94,0,0,1,6.87,1.1,5.81,5.81,0,0,1,1.72,3.76A6.26,6.26,0,0,1,92.61,98.87Zm.69-10.79h.07l0,0Zm4.18,9.8a6.6,6.6,0,0,0-3.74.47,6.54,6.54,0,0,0,2-5.13c0-.12,0-.24,0-.36a39,39,0,0,1,3.87,5.78A6.4,6.4,0,0,0,97.48,97.88Zm4.1,1.27v0h0Zm0,1.25A6.07,6.07,0,0,0,100.09,99l0,0a39.43,39.43,0,0,0-4.41-6.59l-.05,0A6.05,6.05,0,0,0,95,90.59,37.89,37.89,0,0,1,101.54,100.4ZM95.12,89.9l0-.05s0,.06,0,.08Zm1.54-.55a.7.7,0,0,1-1.05.93C95,89.61,96.05,88.68,96.66,89.35ZM96.37,88l.11.05,0,0Zm.33.35h.09l-.05,0ZM96,90.8l-.05,0h0l0,0Zm1.56,2,0,0a.56.56,0,0,0,0,.07Zm.72,1,.07,0h0Zm1.44,2.13,0,0v.06Zm.64,1.05,0,0h0Zm.62-3.27a6.21,6.21,0,0,0,.35.53l-.05,0-.35-.53Zm.35,2a.7.7,0,0,1-1.2.73A.7.7,0,0,1,101.32,95.64Zm-.94-2.73v0h0ZM100.27,94a.7.7,0,0,1-1.16.8C98.65,94,99.76,93.22,100.27,94Zm-.78-2.31v0l-.06-.08Zm-.19-.28a.1.1,0,0,0,0,0l0,0Zm-.16,1a.71.71,0,0,1-1.11.87C97.46,92.51,98.6,91.64,99.14,92.36Zm-1.21-1.53c.59.7-.46,1.55-1.08.89a.72.72,0,0,1,0-.93A.71.71,0,0,1,97.93,90.83Zm.62-7.25h0Zm.43.67c2,2-1,5-3.11,3.11C94,85.25,97,82.23,99,84.24Zm-3.83,2.5,0,.11-.08-.07ZM95,85.53h0Zm-.12.91s0,.06,0,.09l0,0Zm.46,1.49c.64.64-.32,1.6-1,1S94.66,87.28,95.3,87.92Zm-1.43-1.36a.7.7,0,0,1-.93,1.05A.7.7,0,0,1,93.87,86.56Zm-1.48-1.27c.7.59-.16,1.58-.89,1.08S91.7,84.69,92.39,85.29Zm0,2,0,0,0,0A.53.53,0,0,0,92.44,87.29Zm-.62-3.36h0a.11.11,0,0,1,0,0Zm5.64-8.42v0h0Zm-2-1c2.43-.64,2.11,3.7,2,5.26l-.55.07a8.67,8.67,0,0,0-1.15.24C95.07,78.74,93.22,75.11,95.41,74.54Zm-1.27,2.17v0l0,0Zm-2.85-.59c2-2.39,3.41,2.76,3.76,4.23a6.35,6.35,0,0,0-1.5.81C92.59,80.08,90.08,77.55,91.29,76.12Zm-2.14,2.77c1.51-.87,3.19,1.4,4.07,2.53A4.15,4.15,0,0,0,92.09,83a12.05,12.05,0,0,1-2.31-.89C88.66,81.48,87.57,79.8,89.15,78.89ZM90,85.2c-.72-.55.14-1.65.87-1.11S90.72,85.75,90,85.2Zm.5.43,0,0,0,0Zm-.92-3.38,0,0L89,81.94l0,0A6.21,6.21,0,0,0,89.57,82.25Zm-1.36-.86.06.07-.07,0Zm1,1.56c.76.51,0,1.62-.8,1.16A.7.7,0,0,1,89.25,83Zm.23,2,0,0v0Zm-1.89-3a.7.7,0,0,1-.73,1.2A.7.7,0,0,1,87.58,81.9Zm-.2,1.58h0Zm-1.1-.66v0h0Zm-.41-1.89a.7.7,0,0,1-.66,1.24C84.44,81.71,85.07,80.49,85.87,80.93Zm6.71,7.29a6,6,0,0,0-1.63-.62l0,0a39.42,39.42,0,0,0-6.59-4.41l-.06,0A6.12,6.12,0,0,0,83,81.81,38.77,38.77,0,0,1,92.58,88.22ZM84.11,80a.7.7,0,0,1-.58,1.28A.7.7,0,0,1,84.11,80Zm-1-17.74a.56.56,0,1,1,0-.82A.57.57,0,0,1,83.13,62.3Zm.23.39a.82.82,0,1,1,0,1.17A.82.82,0,0,1,83.36,62.69Zm2,1.46q0,.91.05,1.81-.82.64-1.68,1.22c-.17-.46-.37-.9-.59-1.34Q84.24,65,85.31,64.14Zm.08,2.19q0,.59.1,1.18c-.45.33-.91.66-1.38,1-.09-.34-.2-.67-.32-1Q84.61,66.93,85.39,66.33Zm.15,2.78a.71.71,0,0,1-.18,1,.65.65,0,0,1-.93-.15c0-.06,0-.13,0-.19s-.06-.32-.1-.48a.69.69,0,0,1,.25-.34A.71.71,0,0,1,85.53,69.11Zm-1.42,5.82a11.12,11.12,0,0,0,.44-3.67v.07c.46-.28.92-.57,1.36-.88q.16.82.36,1.63c.24-.22.49-.42.75-.62A11.26,11.26,0,0,0,84.11,74.93Zm1.64-16.21a.55.55,0,0,1,.07-.68l.07-.06C85.84,58.23,85.8,58.47,85.75,58.72Zm1.08,8a.71.71,0,0,1,.7.62v0a.7.7,0,1,1-.71-.65Zm-.62-.84a.53.53,0,0,1,1.06-.07A.53.53,0,0,1,86.21,65.84Zm.72,2.6a.53.53,0,1,1-.4.6A.53.53,0,0,1,86.93,68.44Zm0-8.43a.54.54,0,0,1-.37-.59.53.53,0,1,1,.37.59Zm.06.36a.7.7,0,0,1,.57.61c0,.1,0,.21,0,.31a.69.69,0,0,1-.72.47A.7.7,0,1,1,87,60.37Zm.31,2.31a.53.53,0,1,1-1.06-.07A.53.53,0,0,1,87.27,62.68Zm-.58.85a.7.7,0,0,1,.68.56c0,.09,0,.17,0,.26a.7.7,0,1,1-.69-.82ZM88,70.39a.69.69,0,0,1-.07.44l-.34.23-.18.13a.66.66,0,0,1-.79-.54A.7.7,0,0,1,88,70.39Zm-.06-12.17a.7.7,0,0,1-.76.4.7.7,0,1,1,.83-.75C88,58,88,58.11,87.94,58.22ZM87,53.3a.62.62,0,0,1,.26-.24c-.1.28-.2.56-.29.84A.57.57,0,0,1,87,53.3Zm1.2,3.22a.53.53,0,0,1-1-.25A.53.53,0,0,1,88.18,56.52Zm.5-1.3a.7.7,0,1,1,.09-.28Zm.4-1.66a.53.53,0,0,1-1-.38A.53.53,0,0,1,89.08,53.55Zm.73-1.47,0,.11a.7.7,0,0,1-1,.3.72.72,0,0,1-.32-.89.71.71,0,0,1,.92-.38A.7.7,0,0,1,89.81,52.08Zm-1.15-2.85a.56.56,0,0,1,.43-.42c-.14.27-.28.55-.42.83A.61.61,0,0,1,88.66,49.23Zm1.62,1.42a.53.53,0,0,1-1-.43A.53.53,0,0,1,90.28,50.65Zm.84-1.31c-.46.77-1.68.15-1.24-.66A.7.7,0,0,1,91.12,49.34Zm.43-3.44c.51-.75,1.62,0,1.16.8A.7.7,0,0,1,91.54,45.9Zm.2,2a.53.53,0,0,1-.9-.55A.53.53,0,0,1,91.74,47.92ZM88.11,46h0c.6,0,1.62-.11,2.65-.07q-.37.57-.72,1.15l-2-.4C88,46.48,88.08,46.25,88.11,46Zm-.18,1,1.94.38q-.27.46-.52.93c-.69-.27-1.27-.53-1.55-.65h0C87.85,47.44,87.89,47.22,87.94,47Zm-.47,1.91a.42.42,0,1,1,.82.21A.42.42,0,0,1,87.47,48.91Zm-.39,1.16,1.3.19c-.14.3-.28.6-.41.91l-1.1-.46h0C86.91,50.51,87,50.29,87.07,50.08Zm-.35.9.06,0,1.07.44c-.12.29-.24.58-.35.88-.46-.3-.83-.57-1-.72Q86.59,51.3,86.72,51Zm-.89,1.89.11-.22a.43.43,0,1,1-.11.22Zm-.57,1c.34.13.9.32,1.52.57q-.16.53-.31,1.06L84.9,54.42Zm-.53.82,1.66,1.11q-.16.62-.3,1.26c-.75-.68-1.4-1.42-1.75-1.8Zm.73,3.13a.62.62,0,1,1-1-.79.62.62,0,1,1,1,.79Zm-2-1.46.16-.19a.42.42,0,1,1-.16.19ZM82,57.9,85.09,61a.15.15,0,0,0,.22-.22l-3.05-3.05.47-.49a20.38,20.38,0,0,1,3,2c0,.25-.08.5-.11.75-.11.85-.18,1.7-.22,2.55-1.56-.21-3.21-3.18-3.81-4.16Zm.21,2.32a.63.63,0,1,1-.88-.07A.63.63,0,0,1,82.24,60.22Zm-1.7-1,.08-.07a.42.42,0,1,1-.08.07Zm-1,.73c.94.88,4.17,3.65,3.15,5.16a26.92,26.92,0,0,0-3.45-4.78l-.09-.11Zm-.72-5.46a2.1,2.1,0,1,1,0-3A2.12,2.12,0,0,1,78.85,54.5Zm-3.94-3.21a.52.52,0,1,1,.73,0A.52.52,0,0,1,74.91,51.29Zm5.57,1.51c-.73-2.37-4-2.49-6.08-2.93a.15.15,0,0,0-.18.18c.44,2,.56,5.32,2.91,6.07l-.71.5h0a2.86,2.86,0,0,1-.62-.15L74,54.53a9.76,9.76,0,0,1-.49-2.3c-.06-.57-.12-1.13-.19-1.7,0-.22-.31-1.53-.15-1.69s1.28.11,1.53.13l1.86.2c1.82.2,4.11.67,4.39,2.89v0Q80.74,52.46,80.48,52.8Zm1.17-4.13a.52.52,0,0,1,.94.44.52.52,0,1,1-.94-.44Zm-5.33-1c2.15.11,5.13.54,5.24,3.28a.29.29,0,0,0,.05.16q-.19.33-.39.64c-.7-3.28-5.67-3-8.24-3.28a.15.15,0,0,0-.15.15A33.16,33.16,0,0,0,73.48,54L72.05,52.4c0-.15,0-.29,0-.43-.07-1.5-.13-3-.21-4.5ZM52.15,49.38a.51.51,0,1,1-.42-.93.51.51,0,0,1,.42.93Zm.28,1.73a.29.29,0,0,0,.05-.16c.11-2.74,3.08-3.17,5.24-3.28l4.5-.21c-.08,1.5-.13,3-.21,4.5,0,.14,0,.29,0,.43L60.55,54a33.16,33.16,0,0,0,.65-5.32.15.15,0,0,0-.15-.15c-2.57.3-7.54,0-8.24,3.28Q52.62,51.44,52.43,51.12Zm2.75,3.39a2.1,2.1,0,1,1,3,0A2.12,2.12,0,0,1,55.18,54.5Zm3.21-3.94a.51.51,0,1,1,0,.73A.52.52,0,0,1,58.39,50.56ZM56.9,56.12c2.35-.75,2.47-4,2.91-6.07a.15.15,0,0,0-.18-.18c-2,.44-5.34.56-6.08,2.93q-.26-.34-.5-.7a.15.15,0,0,0,0,0c.27-2.22,2.57-2.68,4.39-2.89l1.86-.2c.24,0,1.36-.31,1.53-.13s-.13,1.47-.15,1.69c-.06.57-.12,1.13-.19,1.7a9.76,9.76,0,0,1-.49,2.3l-1.78,1.94a2.87,2.87,0,0,1-.62.15h0ZM56,59.85c3.65-4.06,7.38-8,11-12.09,3.64,4.06,7.37,8,11,12.09A23.71,23.71,0,0,1,83.34,68c1.14,3.43.79,7.43-1.7,10.15l-1-.37a9.3,9.3,0,0,0,2.23-7.66c-.47-3.4-2.46-6.36-4.68-8.88-3.62-4.12-7.42-8.08-11.07-12.17a.15.15,0,0,0-.21,0c-3.66,4.09-7.46,8-11.07,12.17-2.18,2.49-4.14,5.37-4.65,8.71a9.32,9.32,0,0,0,2.26,7.9l-1,.37c-2.55-2.73-2.9-6.75-1.75-10.22A23.67,23.67,0,0,1,56,59.85Zm-1.14.39-.09.11a26.92,26.92,0,0,0-3.45,4.78c-1-1.51,2.2-4.29,3.15-5.16Zm-2-1a.43.43,0,0,1,.52-.06l.08.07a.43.43,0,0,1,0,.6.42.42,0,0,1-.59-.6Zm-.15,1.84a.63.63,0,0,1-.94-.85.63.63,0,1,1,.94.85Zm-.95-3.38-3.05,3.05a.15.15,0,0,0,.22.22L52,57.9l.49.47c-.6,1-2.28,4-3.85,4.17,0-.85-.11-1.7-.22-2.56,0-.24-.07-.48-.11-.72a20.06,20.06,0,0,1,3-2.07Zm-3.13-.76a.63.63,0,1,1,.77,1,.63.63,0,0,1-.77-1Zm1.22-.73a.43.43,0,0,1,.53,0l.16.19a.42.42,0,1,1-.68-.15Zm-.17-.95c-.36.39-1,1.14-1.79,1.84q-.14-.64-.3-1.26l1.69-1.14Zm-.93-1.39.36.57L47.52,55.5q-.15-.54-.31-1.07C47.85,54.18,48.42,54,48.77,53.85Zm-.68-1.2.11.22a.43.43,0,1,1-.11-.22ZM47.31,51q.13.32.28.64c-.22.16-.61.44-1.08.75-.11-.3-.24-.59-.36-.89L47.26,51Zm-.25,3c-.1-.3-.2-.61-.31-.91a.61.61,0,0,1,.31.27A.57.57,0,0,1,47.06,53.94Zm.14-3.22h0L46,51.2c-.13-.31-.27-.61-.41-.92l1.34-.2C47,50.29,47.12,50.51,47.2,50.72Zm-.64-1.8a.43.43,0,0,1-.82.21A.43.43,0,1,1,46.57,48.91Zm-.33-1.26h0c-.29.13-.88.4-1.58.67q-.26-.47-.53-.94l2-.39C46.14,47.22,46.19,47.44,46.24,47.66Zm-.89,2c-.14-.3-.29-.6-.44-.89a.56.56,0,0,1,.48.43A.6.6,0,0,1,45.34,49.69ZM45.92,46h0c0,.22.07.45.11.67l-2.09.41q-.35-.58-.72-1.15C44.27,45.91,45.31,46,45.92,46Zm-4.63.67c-.46-.77.65-1.55,1.16-.8A.7.7,0,0,1,41.29,46.7Zm1,1.22a.53.53,0,0,1,.9-.55A.53.53,0,0,1,42.25,47.92Zm.62,1.42a.7.7,0,0,1,1.24-.66C44.55,49.49,43.33,50.11,42.87,49.34Zm.84,1.31a.53.53,0,0,1,1-.43A.53.53,0,0,1,43.71,50.65Zm.52,1.54,0-.11a.7.7,0,0,1,.4-.85.71.71,0,0,1,.92.38.72.72,0,0,1-.32.89A.7.7,0,0,1,44.23,52.19Zm.68,1.36a.53.53,0,0,1,1-.38A.53.53,0,0,1,44.91,53.55Zm.4,1.66-.09-.28a.7.7,0,1,1,.09.28Zm.5,1.3a.53.53,0,0,1,1-.25A.53.53,0,0,1,45.81,56.52ZM46,57.88a.7.7,0,1,1,.83.75.7.7,0,0,1-.76-.4C46,58.11,46,58,46,57.88Zm0,12.52a.7.7,0,1,1,1.38.26.65.65,0,0,1-.74.55l-.19-.14-.4-.27A.69.69,0,0,1,46,70.39ZM36.18,68h-.13c0-.15.06-.3.08-.45,1.28,0,5.5-.37,5.87,1.4A26.91,26.91,0,0,0,36.18,68Zm.13-1.77a.42.42,0,1,1,0,.11Zm0-4.26a.42.42,0,1,1,0,.25C36.33,62.17,36.32,62.09,36.31,62Zm.87,5.23h0Zm.35-.79a.62.62,0,1,1,1.24.12.64.64,0,0,1-.63.57A.63.63,0,0,1,37.53,66.45Zm1.66.21a.56.56,0,1,1,.57.56A.56.56,0,0,1,39.19,66.65Zm2.38,1a.81.81,0,1,1,.8-.73A.82.82,0,0,1,41.57,67.65ZM36.4,65.06q0-.34,0-.68h4.32a.15.15,0,0,0,0-.31H36.42c0-.23,0-.45,0-.68,1.4-.33,6.13-1.7,6.13.83S37.78,65.39,36.4,65.06ZM37.53,62a.62.62,0,1,1,1.24-.12.62.62,0,1,1-1.24.12Zm1.66-.21a.56.56,0,1,1,.6.54A.56.56,0,0,1,39.19,61.8Zm3.17-.26a.82.82,0,1,1-.84-.73A.83.83,0,0,1,42.37,61.54Zm-.75-4.87h0Zm.36,2.1c.68,2.55-4.35,2.17-5.81,2.11q-.05-.34-.12-.68l4.24-.83a.13.13,0,0,0,.1-.17.15.15,0,0,0-.18-.12L36,59.9c0-.22-.1-.44-.15-.66C37.12,58.65,41.35,56.44,42,58.77ZM37.86,57.3a.62.62,0,1,1-1.2.34A.62.62,0,0,1,37.86,57.3Zm1.47-.45a.56.56,0,0,1-1.06.33A.56.56,0,0,1,39.33,56.85Zm2-1.12h0Zm0,.52a.82.82,0,0,1-1.56.49A.82.82,0,0,1,41.31,56.25Zm-2.06-5a.82.82,0,0,1-1.4.83A.82.82,0,1,1,39.26,51.28Zm-3-4.48c.59.84-.57,1.85-1.26,1S35.55,46,36.26,46.81Zm-1.6,1.32c.39.57-.39,1.26-.85.71S34.17,47.61,34.66,48.12Zm-1.19,1a.64.64,0,0,1,0,.83.63.63,0,0,1-.93,0C32,49.26,32.92,48.51,33.47,49.1Zm-1.28,1.59a.43.43,0,0,1-.63,0c-.36-.42.28-.93.65-.54A.44.44,0,0,1,32.19,50.69Zm1.05,2.37-.36-.56,3.6-2.42a.15.15,0,0,0,0-.21.13.13,0,0,0-.19-.05l-3.62,2.43-.4-.56h0c1-1.07,3.53-4.26,5.21-3.11,2.7,1.86-3.13,4.05-4.27,4.48Zm3.23-.23a.56.56,0,1,1,1-.56A.56.56,0,0,1,36.47,52.83ZM35,53.57a.62.62,0,0,1,1.1-.58A.62.62,0,0,1,35,53.57ZM34.35,53h0Zm-.44,1.22c-.31-.48.44-.92.73-.43A.43.43,0,0,1,33.9,54.19Zm.93,2h.07l4-1.64a.12.12,0,0,0,.06-.18.16.16,0,0,0-.21-.08l-4,1.64,0,0c-.09-.21-.18-.42-.28-.63,1.18-.86,4.31-3.48,5.7-2,2.26,2.33-3.73,3.36-5.06,3.57Q35,56.5,34.84,56.18Zm1.34.77h0Zm-.63,1.2-.07-.23a.43.43,0,1,1,.07.23Zm-3.71,7.09h0Zm0-2h0v0Z"/><path class="cls-3" d="M52.72,45.17H50.66A3.12,3.12,0,0,0,52.72,45.17Z"/><path class="cls-3" d="M33.31,46a.14.14,0,0,0-.21,0L31,48v.43l2.3-2.3A.14.14,0,0,0,33.31,46Z"/><path class="cls-3" d="M31,45.53v.75a8.85,8.85,0,0,1,1-1.11H31.3A.6.6,0,0,1,31,45.53Z"/></g></g></svg>