<svg xmlns="http://www.w3.org/2000/svg" viewBox="0 0 109.32 133.6"><defs><style>.cls-1{fill:#eb600a;}.cls-13,.cls-2{fill:none;stroke:#fff;}.cls-2{stroke-linecap:round;stroke-linejoin:round;}.cls-14,.cls-3,.cls-4,.cls-8{fill:#fff;}.cls-4{font-size:12px;}.cls-14,.cls-4,.cls-8{font-family:AbrilFatface-Regular, Abril Fatface;}.cls-5{letter-spacing:-0.01em;}.cls-6{letter-spacing:0em;}.cls-7{letter-spacing:-0.02em;}.cls-8{font-size:8px;}.cls-9{letter-spacing:-0.05em;}.cls-10{letter-spacing:-0.03em;}.cls-11{letter-spacing:-0.02em;}.cls-12{letter-spacing:-0.01em;}.cls-13{stroke-miterlimit:10;stroke-width:2px;}.cls-14{font-size:14px;}.cls-14,.cls-18{letter-spacing:0.03em;}.cls-15{letter-spacing:0.01em;}.cls-16{letter-spacing:0.02em;}.cls-17{letter-spacing:0.01em;}</style></defs><title>promo_box1</title><g id="Layer_2" data-name="Layer 2"><g id="Layer_1-2" data-name="Layer 1"><rect class="cls-1" width="109.32" height="133.6"/><line class="cls-2" x1="32.2" y1="61.99" x2="77.35" y2="61.99"/><circle class="cls-2" cx="54.78" cy="27.71" r="10.87"/><path class="cls-2" d="M43.91,37.74a7.52,7.52,0,0,1-15,0c0-4.16,7.52-20.9,7.52-20.9S43.91,33.59,43.91,37.74Z"/><line class="cls-2" x1="36.38" y1="61.99" x2="36.38" y2="30.22"/><line class="cls-2" x1="32.2" y1="35.23" x2="36.38" y2="38.58"/><line class="cls-2" x1="54.78" y1="28.55" x2="54.78" y2="61.99"/><line class="cls-2" x1="58.96" y1="28.55" x2="54.78" y2="31.89"/><line class="cls-2" x1="36.38" y1="41.92" x2="40.56" y2="38.58"/><path class="cls-2" d="M65.65,37.74a7.52,7.52,0,1,0,15,0c0-4.16-7.52-20.9-7.52-20.9S65.65,33.59,65.65,37.74Z"/><line class="cls-2" x1="73.17" y1="61.99" x2="73.17" y2="30.22"/><line class="cls-2" x1="77.35" y1="35.23" x2="73.17" y2="38.58"/><line class="cls-2" x1="73.17" y1="41.92" x2="68.99" y2="38.58"/><circle class="cls-3" cx="48.92" cy="28.55" r="0.84"/><circle class="cls-3" cx="52.27" cy="25.2" r="0.84"/><circle class="cls-3" cx="58.96" cy="25.2" r="0.84"/><circle class="cls-3" cx="50.6" cy="33.56" r="0.84"/><circle class="cls-3" cx="60.63" cy="31.89" r="0.84"/><circle class="cls-3" cx="55.61" cy="21.86" r="0.84"/><circle class="cls-3" cx="48.92" cy="23.53" r="0.84"/><circle class="cls-3" cx="62.3" cy="26.87" r="0.84"/><text class="cls-4" transform="translate(21.73 80.93)">WŁ<tspan class="cls-5" x="19.33" y="0">A</tspan><tspan class="cls-6" x="27.54" y="0">S</tspan><tspan class="cls-5" x="34.74" y="0">NOŚ</tspan><tspan x="58.6" y="0">Ć</tspan><tspan x="8.61" y="14.4">G</tspan><tspan class="cls-7" x="17.29" y="14.4">R</tspan><tspan class="cls-6" x="25.64" y="14.4">UNTU</tspan></text><text class="cls-8" transform="translate(13.14 120.93)">D<tspan class="cls-9" x="6.04" y="0">O</tspan><tspan x="11.58" y="0">WIE</tspan><tspan class="cls-10" x="27.54" y="0">D</tspan><tspan x="33.33" y="0">Z SIĘ WI</tspan><tspan class="cls-11" x="64.7" y="0">Ę</tspan><tspan x="69.49" y="0">C</tspan><tspan class="cls-12" x="75.01" y="0">E</tspan><tspan x="79.92" y="0">J</tspan></text><line class="cls-13" x1="39.84" y1="104.93" x2="69.84" y2="104.93"/><rect class="cls-1" width="109.32" height="133.6"/><line class="cls-2" x1="35.72" y1="54.43" x2="74.31" y2="54.43"/><circle class="cls-2" cx="55.02" cy="25.13" r="9.29"/><path class="cls-2" d="M45.72,33.71a6.43,6.43,0,0,1-12.86,0c0-3.55,6.43-17.87,6.43-17.87S45.72,30.15,45.72,33.71Z"/><line class="cls-2" x1="39.29" y1="54.43" x2="39.29" y2="27.28"/><line class="cls-2" x1="35.72" y1="31.56" x2="39.29" y2="34.42"/><line class="cls-2" x1="55.02" y1="25.85" x2="55.02" y2="54.43"/><line class="cls-2" x1="58.59" y1="25.85" x2="55.02" y2="28.7"/><line class="cls-2" x1="39.29" y1="37.28" x2="42.87" y2="34.42"/><path class="cls-2" d="M64.31,33.71a6.43,6.43,0,0,0,12.86,0c0-3.55-6.43-17.87-6.43-17.87S64.31,30.15,64.31,33.71Z"/><line class="cls-2" x1="70.74" y1="54.43" x2="70.74" y2="27.28"/><line class="cls-2" x1="74.31" y1="31.56" x2="70.74" y2="34.42"/><line class="cls-2" x1="70.74" y1="37.28" x2="67.16" y2="34.42"/><circle class="cls-3" cx="50.01" cy="25.85" r="0.71"/><circle class="cls-3" cx="52.87" cy="22.99" r="0.71"/><circle class="cls-3" cx="58.59" cy="22.99" r="0.71"/><circle class="cls-3" cx="51.44" cy="30.13" r="0.71"/><circle class="cls-3" cx="60.02" cy="28.7" r="0.71"/><circle class="cls-3" cx="55.73" cy="20.13" r="0.71"/><circle class="cls-3" cx="50.01" cy="21.56" r="0.71"/><circle class="cls-3" cx="61.45" cy="24.42" r="0.71"/><text class="cls-8" transform="translate(13.14 120.93)">D<tspan class="cls-9" x="6.04" y="0">O</tspan><tspan x="11.58" y="0">WIE</tspan><tspan class="cls-10" x="27.54" y="0">D</tspan><tspan x="33.33" y="0">Z SIĘ WI</tspan><tspan class="cls-11" x="64.7" y="0">Ę</tspan><tspan x="69.49" y="0">C</tspan><tspan class="cls-12" x="75.01" y="0">E</tspan><tspan x="79.92" y="0">J</tspan></text><line class="cls-13" x1="39.84" y1="104.93" x2="69.84" y2="104.93"/><text class="cls-14" transform="translate(14.93 75.93)">WŁ<tspan class="cls-15" x="23.25" y="0">A</tspan><tspan x="33.18" y="0">S</tspan><tspan class="cls-15" x="41.93" y="0">NOŚ</tspan><tspan x="70.81" y="0">Ć</tspan><tspan class="cls-16"><tspan x="10.4" y="16.8">G</tspan><tspan class="cls-17" x="20.87" y="16.8">R</tspan><tspan class="cls-18" x="30.96" y="16.8">UNTU</tspan></tspan></text></g></g></svg>