<svg xmlns="http://www.w3.org/2000/svg" viewBox="0 0 175 68"><defs><style>.cls-1{fill:#eb600a;}.cls-10,.cls-2,.cls-5,.cls-6{fill:#fff;}.cls-2,.cls-3,.cls-4{stroke:#fff;}.cls-2,.cls-4{stroke-miterlimit:10;}.cls-3,.cls-4{fill:none;}.cls-3{stroke-linecap:round;stroke-linejoin:round;}.cls-6{font-size:12px;}.cls-10,.cls-6{font-family:AbrilFatface-Regular, Abril Fatface;}.cls-7{letter-spacing:-0.01em;}.cls-8{letter-spacing:0em;}.cls-9{letter-spacing:-0.02em;}.cls-10{font-size:8px;}.cls-11{letter-spacing:-0.05em;}.cls-12{letter-spacing:-0.03em;}.cls-13{letter-spacing:-0.02em;}.cls-14{letter-spacing:-0.01em;}</style></defs><title>Asset 3</title><g id="Layer_2" data-name="Layer 2"><g id="Layer_1-2" data-name="Layer 1"><rect class="cls-1" width="175" height="68"/><line class="cls-2" x1="12.82" y1="58.63" x2="59.54" y2="58.63"/><circle class="cls-3" cx="36.18" cy="23.16" r="11.25"/><path class="cls-4" d="M24.93,33.54a7.79,7.79,0,1,1-15.57,0c0-4.3,7.79-21.63,7.79-21.63S24.93,29.24,24.93,33.54Z"/><line class="cls-2" x1="17.14" y1="58.63" x2="17.14" y2="25.76"/><line class="cls-2" x1="12.82" y1="30.95" x2="17.14" y2="34.41"/><line class="cls-2" x1="36.18" y1="24.03" x2="36.18" y2="58.63"/><line class="cls-2" x1="40.5" y1="24.03" x2="36.18" y2="27.49"/><line class="cls-2" x1="17.14" y1="37.87" x2="21.47" y2="34.41"/><path class="cls-4" d="M47.43,33.54a7.79,7.79,0,0,0,15.57,0c0-4.3-7.79-21.63-7.79-21.63S47.43,29.24,47.43,33.54Z"/><line class="cls-2" x1="55.21" y1="58.63" x2="55.21" y2="25.76"/><line class="cls-2" x1="59.54" y1="30.95" x2="55.21" y2="34.41"/><line class="cls-2" x1="55.21" y1="37.87" x2="50.89" y2="34.41"/><circle class="cls-5" cx="30.12" cy="24.03" r="0.87"/><circle class="cls-5" cx="33.58" cy="20.57" r="0.87"/><circle class="cls-5" cx="40.5" cy="20.57" r="0.87"/><circle class="cls-5" cx="31.85" cy="29.22" r="0.87"/><circle class="cls-5" cx="42.24" cy="27.49" r="0.87"/><circle class="cls-5" cx="37.04" cy="17.11" r="0.87"/><circle class="cls-5" cx="30.12" cy="18.84" r="0.87"/><circle class="cls-5" cx="43.97" cy="22.3" r="0.87"/><text class="cls-6" transform="translate(80.66 24.26)">WŁ<tspan class="cls-7" x="19.33" y="0">A</tspan><tspan class="cls-8" x="27.54" y="0">S</tspan><tspan class="cls-7" x="34.74" y="0">NOŚ</tspan><tspan x="58.6" y="0">Ć </tspan><tspan x="0" y="14.4">G</tspan><tspan class="cls-9" x="8.68" y="14.4">R</tspan><tspan class="cls-8" x="17.03" y="14.4">UNTU</tspan></text><text class="cls-10" transform="translate(81.14 55.76)">D<tspan class="cls-11" x="6.04" y="0">O</tspan><tspan x="11.58" y="0">WIE</tspan><tspan class="cls-12" x="27.54" y="0">D</tspan><tspan x="33.33" y="0">Z SIĘ WI</tspan><tspan class="cls-13" x="64.7" y="0">Ę</tspan><tspan x="69.49" y="0">C</tspan><tspan class="cls-14" x="75.01" y="0">E</tspan><tspan x="79.92" y="0">J</tspan></text></g></g></svg>