<svg xmlns="http://www.w3.org/2000/svg" viewBox="0 0 196 82.18"><defs><style>.cls-1,.cls-2{fill:none;stroke:#eb600a;}.cls-1{stroke-miterlimit:10;stroke-width:3px;}.cls-2{stroke-linecap:round;stroke-linejoin:round;}.cls-3,.cls-4,.cls-8{fill:#eb600a;}.cls-4{font-size:12px;}.cls-4,.cls-8{font-family:AbrilFatface-Regular, Abril Fatface;}.cls-5{letter-spacing:-0.01em;}.cls-6{letter-spacing:0em;}.cls-7{letter-spacing:-0.02em;}.cls-8{font-size:8px;}.cls-9{letter-spacing:-0.05em;}.cls-10{letter-spacing:-0.03em;}.cls-11{letter-spacing:-0.02em;}.cls-12{letter-spacing:-0.01em;}</style></defs><title>promo_box2</title><g id="Layer_2" data-name="Layer 2"><g id="Layer_1-2" data-name="Layer 1"><rect class="cls-1" x="1.5" y="1.5" width="193" height="79.18"/><line class="cls-2" x1="22.82" y1="65.06" x2="69.54" y2="65.06"/><circle class="cls-2" cx="46.18" cy="29.59" r="11.25"/><path class="cls-2" d="M34.93,40a7.79,7.79,0,0,1-15.57,0c0-4.3,7.79-21.63,7.79-21.63S34.93,35.67,34.93,40Z"/><line class="cls-2" x1="27.15" y1="65.06" x2="27.15" y2="32.18"/><line class="cls-2" x1="22.82" y1="37.37" x2="27.15" y2="40.84"/><line class="cls-2" x1="46.18" y1="30.45" x2="46.18" y2="65.06"/><line class="cls-2" x1="50.51" y1="30.45" x2="46.18" y2="33.91"/><line class="cls-2" x1="27.15" y1="44.3" x2="31.47" y2="40.84"/><path class="cls-2" d="M57.43,40A7.79,7.79,0,1,0,73,40c0-4.3-7.79-21.63-7.79-21.63S57.43,35.67,57.43,40Z"/><line class="cls-2" x1="65.21" y1="65.06" x2="65.21" y2="32.18"/><line class="cls-2" x1="69.54" y1="37.37" x2="65.21" y2="40.84"/><line class="cls-2" x1="65.21" y1="44.3" x2="60.89" y2="40.84"/><circle class="cls-3" cx="40.12" cy="30.45" r="0.87"/><circle class="cls-3" cx="43.59" cy="26.99" r="0.87"/><circle class="cls-3" cx="50.51" cy="26.99" r="0.87"/><circle class="cls-3" cx="41.85" cy="35.64" r="0.87"/><circle class="cls-3" cx="52.24" cy="33.91" r="0.87"/><circle class="cls-3" cx="47.05" cy="23.53" r="0.87"/><circle class="cls-3" cx="40.12" cy="25.26" r="0.87"/><circle class="cls-3" cx="53.97" cy="28.72" r="0.87"/><text class="cls-4" transform="translate(90.67 30.68)">WŁ<tspan class="cls-5" x="19.33" y="0">A</tspan><tspan class="cls-6" x="27.54" y="0">S</tspan><tspan class="cls-5" x="34.74" y="0">NOŚ</tspan><tspan x="58.6" y="0">Ć </tspan><tspan x="0" y="14.4">G</tspan><tspan class="cls-7" x="8.68" y="14.4">R</tspan><tspan class="cls-6" x="17.03" y="14.4">UNTU</tspan></text><text class="cls-8" transform="translate(91.14 62.18)">D<tspan class="cls-9" x="6.04" y="0">O</tspan><tspan x="11.58" y="0">WIE</tspan><tspan class="cls-10" x="27.54" y="0">D</tspan><tspan x="33.33" y="0">Z SIĘ WI</tspan><tspan class="cls-11" x="64.7" y="0">Ę</tspan><tspan x="69.49" y="0">C</tspan><tspan class="cls-12" x="75.01" y="0">E</tspan><tspan x="79.92" y="0">J</tspan></text></g></g></svg>