<svg xmlns="http://www.w3.org/2000/svg" viewBox="0 0 214.36 56.3"><defs><style>.cls-1,.cls-2{fill:#fff;}.cls-1{fill-rule:evenodd;}</style></defs><title>rnsns-logo-white</title><g id="Layer_2" data-name="Layer 2"><g id="Layer_4" data-name="Layer 4"><path class="cls-1" d="M9.54,49.33c.07-.16.64-1,0-1-.08.16-.64,1,0,1Zm8.25-2.84q0,.26,0,.52c.63.4.76-.88.26-.77,0,.16,0,.31-.26.26Zm11.61-1c0-.31.46-.59,0-.77,0,.31-.46.59,0,.77Zm1.29-1.81v.52c.63.4.76-.88.26-.77,0,.16,0,.31-.26.26Zm-6.45-3.1h-.52v1h.52v-1Zm-6.19,1c.2.06.3.22.26.52,1.36.3,1.71-1.39,2.58-.77a1,1,0,0,0-1-1c-.32.71-1.51.55-1.81,1.29ZM24.5,40c.06-.37.42-.44.52-.77-.53-.23-1.16.67-.52.77Zm4.9-1.29h.26a2.71,2.71,0,0,1,.77,2.84h1a15.25,15.25,0,0,0-1.55-4.39c-.58,1.18-.51.34-1.29,0-.33.45-.87.68-.77,1.55Zm-1.55-7c-.07.84.31,1.24,1,1.29a1.27,1.27,0,0,0,0-1.55,1.45,1.45,0,0,0-1,.26Zm6.45-4.65c.06-.2.22-.3.52-.26v-.52c-.33,0-.36-.33-.77-.26,0,.39-.09,1,.26,1Zm-21.41-7c-.23-.2-.74.16-.77.26-.37,1,1.28.19.77-.26Zm6.71-1.81c-.45,1,2.2.44,1,0-.23.71-.58-.79-1,0Zm8,1.29a5.27,5.27,0,0,1-1.55.77c.2,2.26-.18,3.95-1.29,4.91.66,6.72-1.94,3.21,3.87-3.1,4.06.45,3.58-3.65,6.71-4.13-2.06-.64-7.91-2.16-7.74,1.55Zm-5.16-1.29c.2-.18.67-1.54-.26-1.29.14.38-.3,1.33.26,1.29Zm1-1.29H24v-.52h-.52V17ZM17,19.11c.48-.56,2.33.27,2.32-.77-1.4-.2-.54-1.24-1-2.07-.25,1-2.22,1.44-1.29,2.84Zm-6.19-3.36A1.31,1.31,0,0,0,12.9,17c.11-.62-.47-.56-.26-1.29a3.89,3.89,0,0,1-1.81,0ZM33,15c.26,0,.31.21.52.26,0-.41,0-.9-.52-.77,0,.17,0,.34,0,.52Zm-16-.26c-.15,1.14,1.39.89,1-.26-.49-.06-.57.29-1,.26ZM3.87,11.62c-1.3,1,.9,1.21,0,0ZM12.12,8A8.69,8.69,0,0,1,13.41,9.3c-.2.06-.3.22-.26.52,1.23.37.64-1.08.77-1.81-.7.19-.52-.51-1-.52-.08.9-.7,0-.77.52ZM25.28,6.2c-.87-.78-.78,1,0,0ZM12.38,4.65Zm2.32,0h.52V4.13H14.7v.52Zm3.35-1.81c.34-.34.34-1-.26-1-.33.34-.34,1,.26,1Zm-9.29,17v-.52H8.25v.52Zm27.34,12.4c-1.16.18-.59-.43-.52-1-2.42.15.33,3.7.52,1ZM24.76,4.91c1-.46,1.66.4,2.06-.52h.26c.73.46,1.53,2,2.06.52.78.25-.06,2.13,1.29,1.81-.1.5-1,.2-.77,1-.39-.47-.93-.79-.77-1.81-.44.95-1.11.21-1.29-.52-1.14.48-1.06-.41-1.81,0-.19.42.51,1.12.52.52h.26v.52c-.41.72,1.11.71,1,.26h.52V7c-.07.73-1.61,0-1,.77v.52c-.76,0-.76-.79-1.29-1-.59,2.15,3.17,1.37,4.38.52,1,.32-1.17,1-.26,1.29v.77c-.75-.07-.79.58-1.55.52h-.26c0-.57-1.09-.11-1.55-.26-.38.22-.37.83-.52,1.29,0,.21.26.26.26.52a4.81,4.81,0,0,0,1.55-.77h.26a1.68,1.68,0,0,1,1.29.26c.42-.07.44.24.77.26.11.38.33-.1.77,0q0,.39,0,.77h.77c.42-.07.44.24.77.26,1.55.43,2,2,2.84,3.1.21,0,.26-.26.52-.26.07-.76-.58-.79-.52-1.55,1.69,0-.58-.38-1-1.29-.42.07-.44-.24-.77-.26-.53-.67-1.57-.84-2.06-1.55v-.52c.58-.11.1-1.27.26-1.81.21-.73-.36-.67-.26-1.29V7c.24-.28,1-.08.77-.77.57,0,.11,1.1.26,1.55V8c.51.45,1.38,1.87,1.81,1.55.3,0,.59-.46.77,0v.26c-.08.35-.65.21-1,.26.46,1.44,2,1.28,2.84,2.84a1.9,1.9,0,0,0,1,2.58,1.64,1.64,0,0,0-.77,2.32v.26c.5,1,.13,1.9.52,2.58h.26a1.22,1.22,0,0,1,.26.77.7.7,0,0,0-.77.52.71.71,0,0,1,0,1c-.42-.11-.87,1-.26,1v.52c.57-.14.37.49.77.52v.52c-.23.11-.46.23-.52.52.32.7,1,.64.52,1.55-1,.2-2.2.21-2.58,1,.56.71,1.18-.26,1.81.26-.5,1.3-1.4,2.48-.52,3.62v.26c-.72.31-.42,1.65-1.55,1.55.36.35,1.32,1.41,1.81.77.38.22.37.83.52,1.29-.77-.31-1.08-.28-1.29.52-.38.22-.82.39-.77,1s-.47.56-.26,1.29c-.79.19-.5-.71-1.29-.52h-.26v-.26c-.18-.2-1.44-.57-1.55,0h-.26c0-.25-.32-.2-.52-.26-.07.59.06,1,.52,1,.54-.11.68.18,1,.26a.9.9,0,0,0,.52,1.55v.26H33c-.84.09-.59,2.12-.26,2.58,1.25-.16-.36-1.39.26-1.55h.26c.14.53,1-.35.77-1,.38.22.37.83.52,1.29-.68-.08-.85.36-.77,1,.06.28.51.18.52.52.85-.15.37-1,.26-1.55.37,0,.73,0,.77-.26.49.46.19,1.7,1.29,1.55,0,.25-.32.2-.52.26a1.3,1.3,0,0,0-.77.77c-.86,0-.88-.84-1.81-.77-.55.54-.37.8-1.55,1-.19.79.26.94.26,1.55-.76-.35-1.22.05-1.29,1,.11.38.33-.1.77,0-.54.51,0,1.1.52,1.29v.52c-1-.14-1.26.46-2.32.26.07-1.76-.75-.25-1.29-.77v-.52c.93.15,0-1.54,1-1.29-.23-.71-.95.5-1-.52,0-.66.19-.32.52-.26-.68-.78-1-2-2.06-2.32.12-.55-.37-.49-.77-.52a.71.71,0,0,0-.77-.52v-.26c.4-.64-.88-.76-.77-.26v.26c-.3,0-.22.47-.26.77-1.28,0-1.27-.25-2.32,0,.2,1-.31,1.23-.26,2.07h-1c-.1-2.11-.08-2.81-1.81-3.36a2.93,2.93,0,0,0-1,2.32c.06.45.44.59,1,.52.07-.68-.09-1.11-.77-1,.38-1.14,1.34.19,1.29,1,.19.8-.89.31-.52,1.29,0,.21.26.26.26.52,2.08-.18,4-.66,4.9-.77A8.72,8.72,0,0,1,17.54,48c-1-.16-2-1.3-3.09-1.55-1.35-.31-2.74.29-3.87-.26-.63-.31-.92-1.86-1.81-2.07-.23,3.5,2.47,4.07,5.16,4.65,2.78,2.13,6.38,7.88-1.29,7.23.07-.68.53-.85-.52-.77.69-.72-.24-1.28-.26-2.07-.61.08-.48.9-1.29.77-.07-.83.34-2.74-.52-3.62-.77.17.25.55,0,1H9.29v.26c0,.3.06.46.26.52v.77c-.94.57-.06,1.34-.26,1.81-.39.93-1.45,1.12-3.35,1.55,0-.87.59,0,1-.78.27-.85.12-2.11.52-2.84-.23-.64-1.14-.58-1-1.55C7,51.91,7.81,51,8,51.91c.87-.08,1-.86,1.29-1.55-.35,0-.68-1.2-.26-2.07V48c-.17-.88-1.18-.73-1-1.29v-.26c.24-1,0-1.21.26-1.81-.06-.28-.51-.18-.52-.52-.56,0-.55.65-.52,1.29v.77a4.83,4.83,0,0,1-1.29-1.29c.11-.38.33.1.77,0-.44-.67-.28-2-1.55-1.81v-.26c.09-.44-.2-.49-.52-.52A2,2,0,0,0,5.16,40a2.16,2.16,0,0,1,1.55,0c.14,1.43-1.16,1.42-1.29,2.58.68.08.67-.54.77-1,.54.07.07,1.13.52,1.29.95.51.78-1.95,1-.52,1-.79-.68-1-.52-1.81,1,.59,2.49,1.78,3.1,0,.16-.36,1,0,1-.52,1.44.16,2.8.18,3.87-.77h.52c1.12.26,1.19-.53,1.81-.77V38c0-.41.12-1-.26-1v-.26c.07-.59-.06-1-.52-1h-.52c0-.09,0-.17,0-.26-.15-.45.31-1.52-.26-1.55v-.77c-.18-1,.45-2.86-.52-3.1,0-.09,0-.17,0-.26-.17-.26-.59-.27-.52-.77q-.84-.07-.77.77c-.51,0-.33-.7-1-.52.22-1.77-.19-2.91-1.29-3.36,0-.41.12-1-.26-1V24c0-.41.12-1-.26-1-.11-.54.18-.68.26-1,.71-.4,0-1.55-.26-1.81-.45.15-1.52-.31-1.55.26-.72-1.5.56-3-.26-4.91a.7.7,0,0,0,.77-.52c.11-.62-.47-.56-.26-1.29a21.25,21.25,0,0,0-2.58,2.84c.13.38.38.65.52,1,.37,0,.73,0,.77-.26.71.59.28,2.1,0,3.1-.51,0-.33-.7-1-.52,0-1.47-1.4-1.53-1.81-2.58.63.4.76-.88.26-.77V16A2.49,2.49,0,0,0,4.9,13.43c-.85.61-2.11.7-1.55,2.07v.26c-.79.4.45.9.77,1V17a5.47,5.47,0,0,0-3.61,1c0-.3-.06-.46-.26-.52V17.3c.22,0,.24-.1.26-.26.23-.54.72-.83,1-1.29V15.5c.35-.08.21-.65.26-1a1.41,1.41,0,0,0-1,1V16c-.34.31-.41.1-.77,0v-.26c.59-.28,1.44-1.64,1-2.07v-.52c.65-.38,1.58-.48,1.81-1.29v-.26a1.27,1.27,0,0,0,.26-2.07,11.22,11.22,0,0,0,2.32,1c0,.46-.32.54-.26,1s-.12,1,.26,1v.26c.06.76,1,.36,1.29,0H7c.86-1-.49-1.91-.77-2.58.69-.78.44-1.49,0-2.32.68-.63.87-.15,1.55-.77.45-1-.33-1.18,0-1.55.37.14,1.33-.3,1.29.26-.2.06-.3.22-.26.52v.26c-.19.8.71.5.52,1.29C9,8.57,7.52,9.32,8,9.81v.26c.62,1.6,1.75.12,2.84,0v.52c.53.64,1.05.36,1.81,0-.27-1,.13-1.06-.26-1.81-.79-.19-.76.45-1.55.26,0-.26.21-.31.26-.52s0-.17,0-.26h.26a1.45,1.45,0,0,0-.26-1c1.08-.48,1.41-.22,2.84.26V5.68c.41-.43,1.18.34,1.29-.77a13.84,13.84,0,0,0-2.06.26,1.45,1.45,0,0,0,.26,1c-1.22.13-2,.15-1.55-1.29V4.39a2.14,2.14,0,0,0,1-1c.3.87-.18,1.1.26,1.55.46-.58.37-1.7,1.29-1.81q-.07.85.77.78c.48-.49,0-.65,0-1.29h.26C16.61,2.51,16.32,1,17,.52h.77c.06-.2,0-.51.26-.52h.26a20.41,20.41,0,0,1,2.32,1.81c-.95,0-1.14.75-1.55,1.29.27.61,1.19-.55,1.55.26.63,3.17,2.63.24,4.13,1.55Z"/><polygon class="cls-2" points="71.85 52.32 71.85 47.04 73.13 47.04 73.13 52.32 71.85 52.32 71.85 52.32"/><polygon class="cls-2" points="84.69 52.32 81.1 48.55 81.08 48.55 81.08 52.32 79.8 52.32 79.8 47.04 81.29 47.04 84.88 50.82 84.9 50.82 84.9 47.04 86.19 47.04 86.19 52.32 84.69 52.32 84.69 52.32"/><polygon class="cls-2" points="97.17 52.32 95.97 52.32 92.85 47.04 94.29 47.04 96.57 50.91 98.86 47.04 100.29 47.04 97.17 52.32 97.17 52.32"/><polygon class="cls-2" points="106.96 52.32 106.96 47.04 112.69 47.04 112.69 48.05 108.24 48.05 108.24 49.13 111.33 49.13 111.33 50.15 108.24 50.15 108.24 51.31 112.89 51.31 112.89 52.32 106.96 52.32 106.96 52.32"/><path class="cls-2" d="M125.15,48.53a4.8,4.8,0,0,0-1.13-.45,4.9,4.9,0,0,0-1.19-.14,4,4,0,0,0-1.25.15q-.42.15-.42.41t.46.38l.41.07.47,0,.53,0,.59,0a8,8,0,0,1,1.08.17,2.66,2.66,0,0,1,.77.3,1.22,1.22,0,0,1,.46.46,1.38,1.38,0,0,1,.15.66,1.5,1.5,0,0,1-.78,1.34,4.45,4.45,0,0,1-2.3.48,6.81,6.81,0,0,1-1.83-.23,5.28,5.28,0,0,1-1.6-.76l.7-.86a5.83,5.83,0,0,0,1.36.62,5,5,0,0,0,1.42.2,3,3,0,0,0,1.23-.2q.43-.2.43-.53a.32.32,0,0,0-.12-.27.91.91,0,0,0-.36-.15,3.39,3.39,0,0,0-.57-.07l-.76,0a10.47,10.47,0,0,1-1.35-.13,3.59,3.59,0,0,1-1-.28,1.41,1.41,0,0,1-.57-.47,1.18,1.18,0,0,1-.19-.67,1.39,1.39,0,0,1,.75-1.24,4.28,4.28,0,0,1,2.2-.46,5.57,5.57,0,0,1,3.11.77l-.73.85Z"/><polygon class="cls-2" points="136.53 48.05 136.53 52.32 135.25 52.32 135.25 48.05 132.73 48.05 132.73 47.04 139.05 47.04 139.05 48.05 136.53 48.05 136.53 48.05"/><polygon class="cls-2" points="152.08 52.32 152.08 48.57 152.06 48.57 149.54 51.6 147.02 48.57 147 48.57 147 52.32 145.71 52.32 145.71 47.04 147.22 47.04 149.54 49.84 151.86 47.04 153.36 47.04 153.36 52.32 152.08 52.32 152.08 52.32"/><polygon class="cls-2" points="160.02 52.32 160.02 47.04 165.75 47.04 165.75 48.05 161.31 48.05 161.31 49.13 164.4 49.13 164.4 50.15 161.31 50.15 161.31 51.31 165.96 51.31 165.96 52.32 160.02 52.32 160.02 52.32"/><polygon class="cls-2" points="177.51 52.32 173.93 48.55 173.9 48.55 173.9 52.32 172.62 52.32 172.62 47.04 174.12 47.04 177.7 50.82 177.73 50.82 177.73 47.04 179.01 47.04 179.01 52.32 177.51 52.32 177.51 52.32"/><polygon class="cls-2" points="189.48 48.05 189.48 52.32 188.19 52.32 188.19 48.05 185.68 48.05 185.68 47.04 191.99 47.04 191.99 48.05 189.48 48.05 189.48 48.05"/><polygon class="cls-1" points="214.36 47.04 190.54 47.04 190.54 48.05 214.36 48.05 214.36 47.04 214.36 47.04"/><polygon class="cls-1" points="72.97 49.17 46.97 49.17 46.97 50.19 72.97 50.19 72.97 49.17 72.97 49.17"/><path class="cls-2" d="M187.64,33.22h3.13a4.74,4.74,0,0,0,0,.53,9.89,9.89,0,0,0,.29,2.72,1.92,1.92,0,0,0,1.12,1.06q1.35.59,8.8.59a39.23,39.23,0,0,0,7.75-.53q2.32-.52,2.32-3.6a5.71,5.71,0,0,0-.37-2.34,2.11,2.11,0,0,0-1.27-1.11,8.88,8.88,0,0,0-2.53-.37q-1.63-.05-10.57,0a16.7,16.7,0,0,1-4.82-.56,5.5,5.5,0,0,1-2.78-1.78,7,7,0,0,1-1.15-4.41q0-3.27,1.82-4.74a6.29,6.29,0,0,1,2-1.1,15.47,15.47,0,0,1,3-.6,64,64,0,0,1,7.61-.39,36.49,36.49,0,0,1,6.31.42,7.65,7.65,0,0,1,3.47,1.43,4.27,4.27,0,0,1,1.4,1.95,12,12,0,0,1,.42,3.44H210.4v-.37A4.89,4.89,0,0,0,210,21a3.65,3.65,0,0,0-2.47-1.35,29.27,29.27,0,0,0-5.67-.4,51.16,51.16,0,0,0-7,.36,5.92,5.92,0,0,0-3.18,1.17,3.57,3.57,0,0,0-.78,2.59,5,5,0,0,0,.39,2.32,2.5,2.5,0,0,0,1.52,1,25.43,25.43,0,0,0,6.34.56l7.87,0a13.29,13.29,0,0,1,4,.5,4.72,4.72,0,0,1,2.27,1.65,7.06,7.06,0,0,1,1.1,4.25,8.2,8.2,0,0,1-.9,4.16,5.77,5.77,0,0,1-4,2.37,60.58,60.58,0,0,1-10.52.6,51.41,51.41,0,0,1-5.92-.24,8.05,8.05,0,0,1-3-.88,4.16,4.16,0,0,1-1.86-1.94,9.13,9.13,0,0,1-.51-3.51c0-.07,0-.43,0-1.08ZM47,40.77V16.61H62q6.13.07,7.82.3A5,5,0,0,1,74,19.6a9.89,9.89,0,0,1,.76,4.3,16.69,16.69,0,0,1-.23,3.18,3.66,3.66,0,0,1-.82,1.74,5.27,5.27,0,0,1-2.94,1.47,4.35,4.35,0,0,1,2.48,1.2,3.55,3.55,0,0,1,.89,1.77,27.3,27.3,0,0,1,.19,4.07v3.43H71.11V38.45c0-2,0-3.33-.13-4.08a2.94,2.94,0,0,0-2.6-2.69c-.59-.08-1.12-.13-1.58-.15s-2.06,0-4.77,0H50.19v9.29Zm3.22-12.13H62q4.7,0,6-.13a4.88,4.88,0,0,0,2.16-.66c.83-.54,1.24-1.87,1.24-4,0-1.82-.38-3-1.15-3.55A4.93,4.93,0,0,0,68,19.6q-1.59-.15-6-.16H50.19v9.2Zm30.93-12h5.37L107.65,37.8h.74V16.61h3.22V40.77h-5.45L85,19.64h-.71V40.77H81.11V16.61Zm36.78,16.6H121a4.74,4.74,0,0,0,0,.53,9.89,9.89,0,0,0,.29,2.72,1.92,1.92,0,0,0,1.12,1.06q1.35.59,8.8.59a39.22,39.22,0,0,0,7.75-.53q2.32-.52,2.32-3.6a5.71,5.71,0,0,0-.37-2.34,2.11,2.11,0,0,0-1.27-1.11,8.88,8.88,0,0,0-2.53-.37q-1.63-.05-10.57,0a16.71,16.71,0,0,1-4.82-.56A5.51,5.51,0,0,1,119,27.78a7,7,0,0,1-1.15-4.41q0-3.27,1.82-4.74a6.29,6.29,0,0,1,2-1.1,15.47,15.47,0,0,1,3-.6,64,64,0,0,1,7.61-.39,36.48,36.48,0,0,1,6.31.42,7.64,7.64,0,0,1,3.47,1.43,4.27,4.27,0,0,1,1.4,1.95,12,12,0,0,1,.42,3.44h-3.22v-.37a4.89,4.89,0,0,0-.39-2.37,3.65,3.65,0,0,0-2.47-1.35,29.27,29.27,0,0,0-5.67-.4,51.17,51.17,0,0,0-7,.36,5.92,5.92,0,0,0-3.18,1.17,3.57,3.57,0,0,0-.78,2.59,5,5,0,0,0,.39,2.32,2.5,2.5,0,0,0,1.52,1,25.43,25.43,0,0,0,6.34.56l7.87,0a13.29,13.29,0,0,1,4,.5,4.72,4.72,0,0,1,2.27,1.65,7.06,7.06,0,0,1,1.1,4.25,8.21,8.21,0,0,1-.9,4.16,5.77,5.77,0,0,1-4,2.37,60.58,60.58,0,0,1-10.52.6,51.41,51.41,0,0,1-5.92-.24,8.05,8.05,0,0,1-3-.88,4.16,4.16,0,0,1-1.86-1.94,9.13,9.13,0,0,1-.51-3.51c0-.07,0-.43,0-1.08Zm33-16.6h5.37L177.39,37.8h.74V16.61h3.22V40.77H175.9L154.78,19.64h-.71V40.77h-3.22V16.61Z"/><path class="cls-1" d="M28.89,20.92c-.26-1.73,1-2,2.32-2.07C31.44,20.55,30.43,21,28.89,20.92Z"/><path class="cls-1" d="M3.1,19.37c0,.65.4.81.77,1,0,.16,0,.31.26.26H5.42a1.45,1.45,0,0,0,1-.26c.2-.06.3-.22.26-.52.22-.84-.44-2.12-1-1.29v.26a.7.7,0,0,1-1,0V18.6c-.06-.2-.22-.3-.52-.26H2.84v1Z"/></g></g></svg>